<svg width="300" height="80" viewBox="0 0 300 80" fill="none" xmlns="http://www.w3.org/2000/svg">
<path d="M74.544 45H72.4474L77.1584 31.9091H79.4403L84.1513 45H82.0547L78.3537 34.2869H78.2514L74.544 45ZM74.8956 39.8736H81.6967V41.5355H74.8956V39.8736ZM90.5082 35.1818V36.7159H84.9599V35.1818H90.5082ZM86.4812 45V34.044C86.4812 33.4304 86.6154 32.9212 86.8839 32.5163C87.1523 32.1072 87.5082 31.8026 87.9513 31.6023C88.3945 31.3977 88.8761 31.2955 89.396 31.2955C89.7795 31.2955 90.1076 31.3274 90.3803 31.3913C90.6531 31.451 90.8555 31.5064 90.9876 31.5575L90.5401 33.1044C90.4506 33.0788 90.3356 33.049 90.195 33.0149C90.0543 32.9766 89.8839 32.9574 89.6836 32.9574C89.2191 32.9574 88.8867 33.0724 88.6864 33.3026C88.4904 33.5327 88.3924 33.8651 88.3924 34.2997V45H86.4812ZM97.1527 35.1818V36.7159H91.6044V35.1818H97.1527ZM93.1257 45V34.044C93.1257 33.4304 93.2599 32.9212 93.5284 32.5163C93.7969 32.1072 94.1527 31.8026 94.5959 31.6023C95.0391 31.3977 95.5206 31.2955 96.0405 31.2955C96.424 31.2955 96.7521 31.3274 97.0249 31.3913C97.2976 31.451 97.5 31.5064 97.6321 31.5575L97.1847 33.1044C97.0952 33.0788 96.9801 33.049 96.8395 33.0149C96.6989 32.9766 96.5284 32.9574 96.3281 32.9574C95.8636 32.9574 95.5313 33.0724 95.331 33.3026C95.1349 33.5327 95.0369 33.8651 95.0369 34.2997V45H93.1257ZM102.874 45.1982C101.953 45.1982 101.15 44.9872 100.464 44.5653C99.7777 44.1435 99.245 43.5533 98.8658 42.7947C98.4865 42.0362 98.2969 41.1499 98.2969 40.1357C98.2969 39.1172 98.4865 38.2266 98.8658 37.4638C99.245 36.701 99.7777 36.1087 100.464 35.6868C101.15 35.2649 101.953 35.054 102.874 35.054C103.794 35.054 104.597 35.2649 105.283 35.6868C105.969 36.1087 106.502 36.701 106.881 37.4638C107.261 38.2266 107.45 39.1172 107.45 40.1357C107.45 41.1499 107.261 42.0362 106.881 42.7947C106.502 43.5533 105.969 44.1435 105.283 44.5653C104.597 44.9872 103.794 45.1982 102.874 45.1982ZM102.88 43.5938C103.477 43.5938 103.971 43.4361 104.363 43.1207C104.755 42.8054 105.045 42.3857 105.232 41.8615C105.424 41.3374 105.52 40.7599 105.52 40.1293C105.52 39.5028 105.424 38.9276 105.232 38.4034C105.045 37.875 104.755 37.451 104.363 37.1314C103.971 36.8118 103.477 36.652 102.88 36.652C102.279 36.652 101.781 36.8118 101.384 37.1314C100.992 37.451 100.7 37.875 100.509 38.4034C100.321 38.9276 100.227 39.5028 100.227 40.1293C100.227 40.7599 100.321 41.3374 100.509 41.8615C100.7 42.3857 100.992 42.8054 101.384 43.1207C101.781 43.4361 102.279 43.5938 102.88 43.5938ZM109.584 45V35.1818H111.431V36.7415H111.533C111.712 36.2131 112.028 35.7976 112.479 35.495C112.935 35.1882 113.451 35.0348 114.026 35.0348C114.145 35.0348 114.286 35.0391 114.448 35.0476C114.614 35.0561 114.744 35.0668 114.838 35.0795V36.9077C114.761 36.8864 114.625 36.8629 114.429 36.8374C114.233 36.8075 114.037 36.7926 113.841 36.7926C113.389 36.7926 112.986 36.8885 112.633 37.0803C112.283 37.2678 112.006 37.5298 111.802 37.8665C111.597 38.1989 111.495 38.5781 111.495 39.0043V45H109.584ZM119.816 45.1918C119.023 45.1918 118.316 44.9893 117.694 44.5845C117.076 44.1754 116.59 43.5937 116.236 42.8395C115.887 42.081 115.712 41.1712 115.712 40.1101C115.712 39.049 115.889 38.1413 116.243 37.3871C116.6 36.6328 117.091 36.0554 117.713 35.6548C118.335 35.2543 119.04 35.054 119.828 35.054C120.438 35.054 120.928 35.1562 121.299 35.3608C121.674 35.5611 121.963 35.7955 122.168 36.0639C122.377 36.3324 122.539 36.5689 122.654 36.7734H122.769V31.9091H124.68V45H122.814V43.4723H122.654C122.539 43.6811 122.373 43.9197 122.155 44.1882C121.942 44.4567 121.648 44.6911 121.273 44.8913C120.898 45.0916 120.412 45.1918 119.816 45.1918ZM120.238 43.5618C120.787 43.5618 121.252 43.4169 121.631 43.1271C122.015 42.8331 122.304 42.4261 122.5 41.9062C122.701 41.3864 122.801 40.7812 122.801 40.0909C122.801 39.4091 122.703 38.8125 122.507 38.3011C122.311 37.7898 122.023 37.3913 121.644 37.1058C121.265 36.8203 120.796 36.6776 120.238 36.6776C119.662 36.6776 119.183 36.8267 118.799 37.125C118.416 37.4233 118.126 37.8303 117.93 38.3459C117.738 38.8615 117.642 39.4432 117.642 40.0909C117.642 40.7472 117.74 41.3374 117.936 41.8615C118.132 42.3857 118.422 42.8011 118.806 43.108C119.194 43.4105 119.671 43.5618 120.238 43.5618ZM130.265 45.2173C129.643 45.2173 129.08 45.1023 128.578 44.8722C128.075 44.6378 127.676 44.299 127.382 43.8558C127.093 43.4126 126.948 42.8693 126.948 42.2259C126.948 41.6719 127.054 41.2159 127.267 40.858C127.48 40.5 127.768 40.2166 128.13 40.0078C128.492 39.799 128.897 39.6413 129.345 39.5348C129.792 39.4283 130.248 39.3473 130.713 39.2919C131.301 39.2237 131.778 39.1683 132.144 39.1257C132.511 39.0788 132.777 39.0043 132.943 38.902C133.11 38.7997 133.193 38.6335 133.193 38.4034V38.3587C133.193 37.8004 133.035 37.3679 132.72 37.0611C132.409 36.7543 131.944 36.6009 131.326 36.6009C130.683 36.6009 130.176 36.7436 129.805 37.0291C129.438 37.3104 129.185 37.6236 129.044 37.9688L127.248 37.5597C127.461 36.9631 127.772 36.4815 128.181 36.1151C128.595 35.7443 129.07 35.4759 129.607 35.3097C130.144 35.1392 130.708 35.054 131.301 35.054C131.693 35.054 132.108 35.1009 132.547 35.1946C132.99 35.2841 133.404 35.4503 133.787 35.6932C134.175 35.9361 134.492 36.2834 134.74 36.7351C134.987 37.1825 135.11 37.7642 135.11 38.4801V45H133.244V43.6577H133.167C133.044 43.9048 132.858 44.1477 132.611 44.3864C132.364 44.625 132.046 44.8232 131.659 44.9808C131.271 45.1385 130.806 45.2173 130.265 45.2173ZM130.681 43.6832C131.209 43.6832 131.661 43.5788 132.036 43.37C132.415 43.1612 132.703 42.8885 132.899 42.5518C133.099 42.2109 133.199 41.8466 133.199 41.4588V40.1932C133.131 40.2614 132.999 40.3253 132.803 40.3849C132.611 40.4403 132.392 40.4893 132.144 40.532C131.897 40.5703 131.656 40.6065 131.422 40.6406C131.188 40.6705 130.992 40.696 130.834 40.7173C130.463 40.7642 130.124 40.843 129.818 40.9538C129.515 41.0646 129.272 41.2244 129.089 41.4332C128.91 41.6378 128.82 41.9105 128.82 42.2514C128.82 42.7244 128.995 43.0824 129.345 43.3253C129.694 43.5639 130.139 43.6832 130.681 43.6832ZM137.809 45V31.9091H139.721V36.7734H139.836C139.946 36.5689 140.106 36.3324 140.315 36.0639C140.524 35.7955 140.814 35.5611 141.184 35.3608C141.555 35.1562 142.045 35.054 142.654 35.054C143.447 35.054 144.154 35.2543 144.777 35.6548C145.399 36.0554 145.887 36.6328 146.24 37.3871C146.598 38.1413 146.777 39.049 146.777 40.1101C146.777 41.1712 146.6 42.081 146.247 42.8395C145.893 43.5937 145.407 44.1754 144.789 44.5845C144.172 44.9893 143.466 45.1918 142.674 45.1918C142.077 45.1918 141.589 45.0916 141.21 44.8913C140.835 44.6911 140.541 44.4567 140.328 44.1882C140.115 43.9197 139.951 43.6811 139.836 43.4723H139.676V45H137.809ZM139.682 40.0909C139.682 40.7812 139.782 41.3864 139.983 41.9062C140.183 42.4261 140.473 42.8331 140.852 43.1271C141.231 43.4169 141.696 43.5618 142.245 43.5618C142.816 43.5618 143.294 43.4105 143.677 43.108C144.061 42.8011 144.35 42.3857 144.547 41.8615C144.747 41.3374 144.847 40.7472 144.847 40.0909C144.847 39.4432 144.749 38.8615 144.553 38.3459C144.361 37.8303 144.071 37.4233 143.684 37.125C143.3 36.8267 142.821 36.6776 142.245 36.6776C141.691 36.6776 141.223 36.8203 140.839 37.1058C140.46 37.3913 140.172 37.7898 139.976 38.3011C139.78 38.8125 139.682 39.4091 139.682 40.0909ZM150.835 31.9091V45H148.923V31.9091H150.835ZM157.637 45.1982C156.67 45.1982 155.837 44.9915 155.138 44.5781C154.444 44.1605 153.907 43.5746 153.527 42.8203C153.152 42.0618 152.965 41.1733 152.965 40.1548C152.965 39.1491 153.152 38.2628 153.527 37.4957C153.907 36.7287 154.435 36.13 155.113 35.6996C155.794 35.2692 156.591 35.054 157.503 35.054C158.057 35.054 158.594 35.1456 159.114 35.3288C159.634 35.5121 160.1 35.7997 160.514 36.1918C160.927 36.5838 161.253 37.093 161.492 37.7195C161.73 38.3416 161.85 39.098 161.85 39.9886V40.6662H154.045V39.2344H159.977C159.977 38.7315 159.875 38.2862 159.67 37.8984C159.466 37.5064 159.178 37.1974 158.807 36.9716C158.441 36.7457 158.01 36.6328 157.516 36.6328C156.979 36.6328 156.51 36.7649 156.11 37.0291C155.713 37.2891 155.407 37.63 155.189 38.0518C154.976 38.4695 154.87 38.9233 154.87 39.4134V40.532C154.87 41.1882 154.985 41.7464 155.215 42.2067C155.449 42.6669 155.775 43.0185 156.193 43.2614C156.61 43.5 157.098 43.6193 157.657 43.6193C158.019 43.6193 158.349 43.5682 158.647 43.4659C158.946 43.3594 159.203 43.2017 159.421 42.9929C159.638 42.7841 159.804 42.5263 159.919 42.2195L161.728 42.5455C161.583 43.0781 161.324 43.5447 160.949 43.9453C160.578 44.3416 160.111 44.6506 159.549 44.8722C158.99 45.0895 158.353 45.1982 157.637 45.1982Z" fill="#263238"/>
<path d="M56 46.4993V32.4988C55.9991 31.886 55.8347 31.2841 55.523 30.7526C55.2113 30.2211 54.7632 29.7784 54.223 29.4685L41.7769 22.4683C41.2372 22.1615 40.6241 22 40 22C39.3759 22 38.7628 22.1615 38.2231 22.4683L25.777 29.4685C25.2348 29.7763 24.7852 30.2185 24.4732 30.7505C24.1613 31.2824 23.9981 31.8855 24 32.4988V46.503C24.0012 47.1155 24.1658 47.7171 24.4775 48.2482C24.7891 48.7794 25.237 49.2217 25.777 49.5315L38.2231 56.5317C38.7628 56.8385 39.3759 57 40 57C40.6241 57 41.2372 56.8385 41.7769 56.5317L54.223 49.5315C54.7654 49.2235 55.2153 48.7811 55.5272 48.2487C55.8392 47.7164 56.0023 47.113 56 46.4993Z" stroke="#FFBB00" stroke-width="2.5" stroke-linecap="round" stroke-linejoin="round"/>
<path d="M34.3525 31.2093H45.6466M34.3525 36.3268H45.6466M42.3525 49.6309L34.3525 41.4443H37.1761C43.4518 41.4443 43.4518 31.2093 37.1761 31.2093" stroke="#FFBB00" stroke-width="2.5" stroke-linecap="round" stroke-linejoin="round"/>
</svg>
