<svg width="300" height="80" viewBox="0 0 300 80" fill="none" xmlns="http://www.w3.org/2000/svg">
<path d="M84.3111 36.1662H82.3168C82.2401 35.7401 82.0973 35.3651 81.8885 35.0412C81.6797 34.7173 81.424 34.4425 81.1214 34.2166C80.8189 33.9908 80.4801 33.8203 80.1051 33.7053C79.7344 33.5902 79.3402 33.5327 78.9226 33.5327C78.1683 33.5327 77.4929 33.7223 76.8963 34.1016C76.304 34.4808 75.8352 35.0369 75.4901 35.7699C75.1491 36.5028 74.9787 37.3977 74.9787 38.4545C74.9787 39.5199 75.1491 40.419 75.4901 41.152C75.8352 41.8849 76.3061 42.4389 76.9027 42.8139C77.4993 43.1889 78.1705 43.3764 78.9162 43.3764C79.3295 43.3764 79.7216 43.321 80.0923 43.2102C80.4673 43.0952 80.8061 42.9268 81.1087 42.7053C81.4112 42.4837 81.6669 42.2131 81.8757 41.8935C82.0888 41.5696 82.2358 41.1989 82.3168 40.7812L84.3111 40.7876C84.2045 41.4311 83.9979 42.0234 83.6911 42.5646C83.3885 43.1016 82.9986 43.5661 82.5213 43.9581C82.0483 44.3459 81.5071 44.6463 80.8977 44.8594C80.2884 45.0724 79.6236 45.179 78.9034 45.179C77.7699 45.179 76.7599 44.9105 75.8736 44.3736C74.9872 43.8324 74.2884 43.0589 73.777 42.0533C73.2699 41.0476 73.0163 39.848 73.0163 38.4545C73.0163 37.0568 73.272 35.8572 73.7834 34.8558C74.2947 33.8501 74.9936 33.0788 75.88 32.5419C76.7663 32.0007 77.7741 31.7301 78.9034 31.7301C79.598 31.7301 80.2457 31.8303 80.8466 32.0305C81.4517 32.2266 81.995 32.5163 82.4766 32.8999C82.9581 33.2791 83.3565 33.7436 83.6719 34.2933C83.9872 34.8388 84.2003 35.4631 84.3111 36.1662ZM89.3784 45.2173C88.7562 45.2173 88.1937 45.1023 87.6909 44.8722C87.188 44.6378 86.7896 44.299 86.4956 43.8558C86.2058 43.4126 86.0609 42.8693 86.0609 42.2259C86.0609 41.6719 86.1674 41.2159 86.3805 40.858C86.5936 40.5 86.8812 40.2166 87.2434 40.0078C87.6056 39.799 88.0105 39.6413 88.4579 39.5348C88.9054 39.4283 89.3613 39.3473 89.8258 39.2919C90.4139 39.2237 90.8912 39.1683 91.2576 39.1257C91.6241 39.0788 91.8904 39.0043 92.0566 38.902C92.2228 38.7997 92.3059 38.6335 92.3059 38.4034V38.3587C92.3059 37.8004 92.1483 37.3679 91.8329 37.0611C91.5218 36.7543 91.0574 36.6009 90.4395 36.6009C89.796 36.6009 89.2889 36.7436 88.9181 37.0291C88.5517 37.3104 88.2981 37.6236 88.1575 37.9688L86.3613 37.5597C86.5744 36.9631 86.8855 36.4815 87.2946 36.1151C87.7079 35.7443 88.1831 35.4759 88.72 35.3097C89.2569 35.1392 89.8216 35.054 90.4139 35.054C90.8059 35.054 91.2214 35.1009 91.6603 35.1946C92.1035 35.2841 92.5169 35.4503 92.9004 35.6932C93.2882 35.9361 93.6056 36.2834 93.8528 36.7351C94.1 37.1825 94.2235 37.7642 94.2235 38.4801V45H92.3571V43.6577H92.2804C92.1568 43.9048 91.9714 44.1477 91.7243 44.3864C91.4771 44.625 91.1596 44.8232 90.7718 44.9808C90.3841 45.1385 89.9196 45.2173 89.3784 45.2173ZM89.7939 43.6832C90.3223 43.6832 90.774 43.5788 91.149 43.37C91.5282 43.1612 91.8159 42.8885 92.0119 42.5518C92.2122 42.2109 92.3123 41.8466 92.3123 41.4588V40.1932C92.2441 40.2614 92.112 40.3253 91.916 40.3849C91.7243 40.4403 91.5048 40.4893 91.2576 40.532C91.0105 40.5703 90.7697 40.6065 90.5353 40.6406C90.301 40.6705 90.1049 40.696 89.9473 40.7173C89.5765 40.7642 89.2377 40.843 88.9309 40.9538C88.6284 41.0646 88.3855 41.2244 88.2022 41.4332C88.0233 41.6378 87.9338 41.9105 87.9338 42.2514C87.9338 42.7244 88.1085 43.0824 88.4579 43.3253C88.8074 43.5639 89.2527 43.6832 89.7939 43.6832ZM101.442 35.1818V36.7159H95.8935V35.1818H101.442ZM97.4148 45V34.044C97.4148 33.4304 97.549 32.9212 97.8175 32.5163C98.0859 32.1072 98.4418 31.8026 98.8849 31.6023C99.3281 31.3977 99.8097 31.2955 100.33 31.2955C100.713 31.2955 101.041 31.3274 101.314 31.3913C101.587 31.451 101.789 31.5064 101.921 31.5575L101.474 33.1044C101.384 33.0788 101.269 33.049 101.129 33.0149C100.988 32.9766 100.817 32.9574 100.617 32.9574C100.153 32.9574 99.8203 33.0724 99.62 33.3026C99.424 33.5327 99.326 33.8651 99.326 34.2997V45H97.4148ZM107.259 45.1982C106.291 45.1982 105.458 44.9915 104.759 44.5781C104.065 44.1605 103.528 43.5746 103.148 42.8203C102.773 42.0618 102.586 41.1733 102.586 40.1548C102.586 39.1491 102.773 38.2628 103.148 37.4957C103.528 36.7287 104.056 36.13 104.734 35.6996C105.415 35.2692 106.212 35.054 107.124 35.054C107.678 35.054 108.215 35.1456 108.735 35.3288C109.255 35.5121 109.722 35.7997 110.135 36.1918C110.548 36.5838 110.874 37.093 111.113 37.7195C111.352 38.3416 111.471 39.098 111.471 39.9886V40.6662H103.666V39.2344H109.598C109.598 38.7315 109.496 38.2862 109.291 37.8984C109.087 37.5064 108.799 37.1974 108.428 36.9716C108.062 36.7457 107.631 36.6328 107.137 36.6328C106.6 36.6328 106.131 36.7649 105.731 37.0291C105.335 37.2891 105.028 37.63 104.81 38.0518C104.597 38.4695 104.491 38.9233 104.491 39.4134V40.532C104.491 41.1882 104.606 41.7464 104.836 42.2067C105.07 42.6669 105.396 43.0185 105.814 43.2614C106.232 43.5 106.719 43.6193 107.278 43.6193C107.64 43.6193 107.97 43.5682 108.268 43.4659C108.567 43.3594 108.825 43.2017 109.042 42.9929C109.259 42.7841 109.425 42.5263 109.54 42.2195L111.349 42.5455C111.205 43.0781 110.945 43.5447 110.57 43.9453C110.199 44.3416 109.732 44.6506 109.17 44.8722C108.612 45.0895 107.974 45.1982 107.259 45.1982ZM122.165 45.1854C121.287 45.1854 120.531 45.0256 119.896 44.706C119.265 44.3864 118.779 43.9517 118.438 43.402C118.097 42.848 117.927 42.2216 117.927 41.5227C117.927 40.9901 118.038 40.517 118.259 40.1037C118.481 39.6861 118.79 39.3004 119.186 38.9467C119.582 38.593 120.04 38.2372 120.56 37.8793L122.67 36.3899C123.028 36.1555 123.307 35.9084 123.507 35.6484C123.707 35.3842 123.808 35.0582 123.808 34.6705C123.808 34.3636 123.675 34.0696 123.411 33.7884C123.147 33.5071 122.793 33.3665 122.35 33.3665C122.043 33.3665 121.773 33.4411 121.538 33.5902C121.308 33.7393 121.127 33.9311 120.995 34.1655C120.867 34.3956 120.803 34.6385 120.803 34.8942C120.803 35.1925 120.884 35.4929 121.046 35.7955C121.212 36.098 121.425 36.4112 121.685 36.7351C121.945 37.0547 122.218 37.3871 122.504 37.7322L128.582 45H126.422L121.391 39.0874C120.969 38.5888 120.577 38.12 120.215 37.6811C119.853 37.2379 119.559 36.7905 119.333 36.3388C119.112 35.8828 119.001 35.3906 119.001 34.8622C119.001 34.2614 119.137 33.7287 119.41 33.2642C119.687 32.7955 120.072 32.429 120.567 32.1648C121.061 31.9006 121.641 31.7685 122.305 31.7685C122.979 31.7685 123.556 31.9006 124.038 32.1648C124.523 32.4247 124.896 32.772 125.156 33.2067C125.42 33.6371 125.553 34.108 125.553 34.6193C125.553 35.2415 125.397 35.7912 125.086 36.2685C124.779 36.7415 124.355 37.1761 123.814 37.5724L121.187 39.5092C120.675 39.8842 120.32 40.255 120.119 40.6214C119.923 40.9837 119.825 41.267 119.825 41.4716C119.825 41.8466 119.921 42.1939 120.113 42.5135C120.309 42.8331 120.582 43.0888 120.931 43.2805C121.285 43.4723 121.698 43.5682 122.171 43.5682C122.657 43.5682 123.13 43.4638 123.59 43.255C124.055 43.0419 124.474 42.7372 124.849 42.3409C125.229 41.9446 125.529 41.4695 125.751 40.9155C125.972 40.3615 126.083 39.7415 126.083 39.0554H127.809C127.809 39.8991 127.713 40.6129 127.521 41.1967C127.33 41.7763 127.097 42.2493 126.825 42.6158C126.556 42.978 126.303 43.2614 126.064 43.4659C125.987 43.5341 125.915 43.6023 125.847 43.6705C125.778 43.7386 125.706 43.8068 125.629 43.875C125.186 44.3224 124.649 44.6527 124.018 44.8658C123.392 45.0788 122.774 45.1854 122.165 45.1854ZM134.351 33.6094V31.9091H144.483V33.6094H140.398V45H138.429V33.6094H134.351ZM149.376 45.1982C148.408 45.1982 147.575 44.9915 146.876 44.5781C146.182 44.1605 145.645 43.5746 145.266 42.8203C144.891 42.0618 144.703 41.1733 144.703 40.1548C144.703 39.1491 144.891 38.2628 145.266 37.4957C145.645 36.7287 146.173 36.13 146.851 35.6996C147.533 35.2692 148.33 35.054 149.241 35.054C149.795 35.054 150.332 35.1456 150.852 35.3288C151.372 35.5121 151.839 35.7997 152.252 36.1918C152.665 36.5838 152.991 37.093 153.23 37.7195C153.469 38.3416 153.588 39.098 153.588 39.9886V40.6662H145.783V39.2344H151.715C151.715 38.7315 151.613 38.2862 151.408 37.8984C151.204 37.5064 150.916 37.1974 150.545 36.9716C150.179 36.7457 149.749 36.6328 149.254 36.6328C148.717 36.6328 148.249 36.7649 147.848 37.0291C147.452 37.2891 147.145 37.63 146.928 38.0518C146.714 38.4695 146.608 38.9233 146.608 39.4134V40.532C146.608 41.1882 146.723 41.7464 146.953 42.2067C147.188 42.6669 147.513 43.0185 147.931 43.2614C148.349 43.5 148.837 43.6193 149.395 43.6193C149.757 43.6193 150.087 43.5682 150.386 43.4659C150.684 43.3594 150.942 43.2017 151.159 42.9929C151.376 42.7841 151.543 42.5263 151.658 42.2195L153.467 42.5455C153.322 43.0781 153.062 43.5447 152.687 43.9453C152.316 44.3416 151.849 44.6506 151.287 44.8722C150.729 45.0895 150.092 45.1982 149.376 45.1982ZM158.566 45.2173C157.944 45.2173 157.381 45.1023 156.878 44.8722C156.376 44.6378 155.977 44.299 155.683 43.8558C155.393 43.4126 155.248 42.8693 155.248 42.2259C155.248 41.6719 155.355 41.2159 155.568 40.858C155.781 40.5 156.069 40.2166 156.431 40.0078C156.793 39.799 157.198 39.6413 157.645 39.5348C158.093 39.4283 158.549 39.3473 159.013 39.2919C159.601 39.2237 160.079 39.1683 160.445 39.1257C160.812 39.0788 161.078 39.0043 161.244 38.902C161.41 38.7997 161.493 38.6335 161.493 38.4034V38.3587C161.493 37.8004 161.336 37.3679 161.02 37.0611C160.709 36.7543 160.245 36.6009 159.627 36.6009C158.983 36.6009 158.476 36.7436 158.106 37.0291C157.739 37.3104 157.486 37.6236 157.345 37.9688L155.549 37.5597C155.762 36.9631 156.073 36.4815 156.482 36.1151C156.895 35.7443 157.371 35.4759 157.907 35.3097C158.444 35.1392 159.009 35.054 159.601 35.054C159.993 35.054 160.409 35.1009 160.848 35.1946C161.291 35.2841 161.704 35.4503 162.088 35.6932C162.476 35.9361 162.793 36.2834 163.04 36.7351C163.287 37.1825 163.411 37.7642 163.411 38.4801V45H161.545V43.6577H161.468C161.344 43.9048 161.159 44.1477 160.912 44.3864C160.665 44.625 160.347 44.8232 159.959 44.9808C159.572 45.1385 159.107 45.2173 158.566 45.2173ZM158.981 43.6832C159.51 43.6832 159.961 43.5788 160.336 43.37C160.716 43.1612 161.003 42.8885 161.199 42.5518C161.4 42.2109 161.5 41.8466 161.5 41.4588V40.1932C161.432 40.2614 161.3 40.3253 161.104 40.3849C160.912 40.4403 160.692 40.4893 160.445 40.532C160.198 40.5703 159.957 40.6065 159.723 40.6406C159.488 40.6705 159.292 40.696 159.135 40.7173C158.764 40.7642 158.425 40.843 158.118 40.9538C157.816 41.0646 157.573 41.2244 157.39 41.4332C157.211 41.6378 157.121 41.9105 157.121 42.2514C157.121 42.7244 157.296 43.0824 157.645 43.3253C157.995 43.5639 158.44 43.6832 158.981 43.6832ZM170.874 45V31.9091H175.668C176.597 31.9091 177.366 32.0625 177.975 32.3693C178.585 32.6719 179.041 33.0831 179.343 33.603C179.646 34.1186 179.797 34.7003 179.797 35.348C179.797 35.8935 179.697 36.3537 179.497 36.7287C179.296 37.0994 179.028 37.3977 178.691 37.6236C178.359 37.8452 177.992 38.0071 177.592 38.1094V38.2372C178.026 38.2585 178.45 38.3991 178.864 38.6591C179.281 38.9148 179.627 39.2791 179.899 39.7521C180.172 40.2251 180.308 40.8004 180.308 41.478C180.308 42.147 180.151 42.7479 179.835 43.2805C179.524 43.8089 179.043 44.2287 178.391 44.5398C177.739 44.8466 176.906 45 175.892 45H170.874ZM172.849 43.3061H175.7C176.646 43.3061 177.323 43.1229 177.732 42.7564C178.142 42.3899 178.346 41.9318 178.346 41.3821C178.346 40.9687 178.242 40.5895 178.033 40.2443C177.824 39.8991 177.526 39.6243 177.138 39.4197C176.754 39.2152 176.298 39.1129 175.77 39.1129H172.849V43.3061ZM172.849 37.5724H175.495C175.938 37.5724 176.337 37.4872 176.691 37.3168C177.048 37.1463 177.332 36.9077 177.541 36.6009C177.754 36.2898 177.86 35.9233 177.86 35.5014C177.86 34.9602 177.671 34.5064 177.291 34.1399C176.912 33.7734 176.33 33.5902 175.546 33.5902H172.849V37.5724ZM185.355 45.2173C184.733 45.2173 184.17 45.1023 183.667 44.8722C183.165 44.6378 182.766 44.299 182.472 43.8558C182.182 43.4126 182.037 42.8693 182.037 42.2259C182.037 41.6719 182.144 41.2159 182.357 40.858C182.57 40.5 182.858 40.2166 183.22 40.0078C183.582 39.799 183.987 39.6413 184.434 39.5348C184.882 39.4283 185.338 39.3473 185.802 39.2919C186.39 39.2237 186.868 39.1683 187.234 39.1257C187.601 39.0788 187.867 39.0043 188.033 38.902C188.199 38.7997 188.282 38.6335 188.282 38.4034V38.3587C188.282 37.8004 188.125 37.3679 187.809 37.0611C187.498 36.7543 187.034 36.6009 186.416 36.6009C185.773 36.6009 185.265 36.7436 184.895 37.0291C184.528 37.3104 184.275 37.6236 184.134 37.9688L182.338 37.5597C182.551 36.9631 182.862 36.4815 183.271 36.1151C183.684 35.7443 184.16 35.4759 184.697 35.3097C185.233 35.1392 185.798 35.054 186.39 35.054C186.782 35.054 187.198 35.1009 187.637 35.1946C188.08 35.2841 188.493 35.4503 188.877 35.6932C189.265 35.9361 189.582 36.2834 189.829 36.7351C190.077 37.1825 190.2 37.7642 190.2 38.4801V45H188.334V43.6577H188.257C188.133 43.9048 187.948 44.1477 187.701 44.3864C187.454 44.625 187.136 44.8232 186.748 44.9808C186.361 45.1385 185.896 45.2173 185.355 45.2173ZM185.77 43.6832C186.299 43.6832 186.751 43.5788 187.126 43.37C187.505 43.1612 187.792 42.8885 187.988 42.5518C188.189 42.2109 188.289 41.8466 188.289 41.4588V40.1932C188.221 40.2614 188.089 40.3253 187.893 40.3849C187.701 40.4403 187.481 40.4893 187.234 40.532C186.987 40.5703 186.746 40.6065 186.512 40.6406C186.278 40.6705 186.081 40.696 185.924 40.7173C185.553 40.7642 185.214 40.843 184.907 40.9538C184.605 41.0646 184.362 41.2244 184.179 41.4332C184 41.6378 183.91 41.9105 183.91 42.2514C183.91 42.7244 184.085 43.0824 184.434 43.3253C184.784 43.5639 185.229 43.6832 185.77 43.6832ZM192.746 45V35.1818H194.593V36.7415H194.695C194.874 36.2131 195.19 35.7976 195.641 35.495C196.097 35.1882 196.613 35.0348 197.188 35.0348C197.308 35.0348 197.448 35.0391 197.61 35.0476C197.776 35.0561 197.906 35.0668 198 35.0795V36.9077C197.923 36.8864 197.787 36.8629 197.591 36.8374C197.395 36.8075 197.199 36.7926 197.003 36.7926C196.551 36.7926 196.148 36.8885 195.795 37.0803C195.445 37.2678 195.168 37.5298 194.964 37.8665C194.759 38.1989 194.657 38.5781 194.657 39.0043V45H192.746Z" fill="#263238"/>
<path d="M24 43.5581C25.4758 44.6996 27.6929 45.3664 30.223 45.3362C32.7532 45.3664 34.9703 44.6996 36.4461 43.5581C37.9218 42.4167 40.139 41.7499 42.6691 41.7801C45.1993 41.7499 47.4164 42.4167 48.8922 43.5581M32.8901 24C32.3273 24.4039 31.8714 24.9387 31.5616 25.5583C31.2518 26.1778 31.0975 26.8635 31.1121 27.556C31.0975 28.2486 31.2518 28.9342 31.5616 29.5538C31.8714 30.1733 32.3273 30.7081 32.8901 31.1121M40.0021 24C39.4394 24.4039 38.9835 24.9387 38.6737 25.5583C38.3639 26.1778 38.2096 26.8635 38.2241 27.556C38.2096 28.2486 38.3639 28.9342 38.6737 29.5538C38.9835 30.1733 39.4394 30.7081 40.0021 31.1121" stroke="#FFBB00" stroke-width="2.5" stroke-linecap="round" stroke-linejoin="round"/>
<path d="M24 36.446H48.8922V45.3361C48.8922 48.1655 47.7682 50.8789 45.7676 52.8796C43.7669 54.8802 41.0535 56.0042 38.2241 56.0042H34.6681C31.8387 56.0042 29.1253 54.8802 27.1246 52.8796C25.124 50.8789 24 48.1655 24 45.3361V36.446Z" stroke="#FFBB00" stroke-width="2.5" stroke-linecap="round" stroke-linejoin="round"/>
<path d="M48.4404 48.405C49.2345 48.7695 50.1059 48.9334 50.9782 48.8823C51.8504 48.8311 52.6967 48.5664 53.4427 48.1116C54.1887 47.6567 54.8115 47.0256 55.2565 46.2736C55.7014 45.5217 55.9548 44.6719 55.9944 43.7991C56.034 42.9263 55.8586 42.0571 55.4835 41.2679C55.1085 40.4788 54.5454 39.7938 53.8436 39.2733C53.1419 38.7527 52.323 38.4126 51.459 38.2826C50.595 38.1527 49.7123 38.237 48.8885 38.5281" stroke="#FFBB00" stroke-width="2.5" stroke-linecap="round" stroke-linejoin="round"/>
</svg>
