<svg width="300" height="80" viewBox="0 0 300 80" fill="none" xmlns="http://www.w3.org/2000/svg">
<path d="M84.3111 36.1662H82.3168C82.2401 35.7401 82.0973 35.3651 81.8885 35.0412C81.6797 34.7173 81.424 34.4425 81.1214 34.2166C80.8189 33.9908 80.4801 33.8203 80.1051 33.7053C79.7344 33.5902 79.3402 33.5327 78.9226 33.5327C78.1683 33.5327 77.4929 33.7223 76.8963 34.1016C76.304 34.4808 75.8352 35.0369 75.4901 35.7699C75.1491 36.5028 74.9787 37.3977 74.9787 38.4545C74.9787 39.5199 75.1491 40.419 75.4901 41.152C75.8352 41.8849 76.3061 42.4389 76.9027 42.8139C77.4993 43.1889 78.1705 43.3764 78.9162 43.3764C79.3295 43.3764 79.7216 43.321 80.0923 43.2102C80.4673 43.0952 80.8061 42.9268 81.1087 42.7053C81.4112 42.4837 81.6669 42.2131 81.8757 41.8935C82.0888 41.5696 82.2358 41.1989 82.3168 40.7812L84.3111 40.7876C84.2045 41.4311 83.9979 42.0234 83.6911 42.5646C83.3885 43.1016 82.9986 43.5661 82.5213 43.9581C82.0483 44.3459 81.5071 44.6463 80.8977 44.8594C80.2884 45.0724 79.6236 45.179 78.9034 45.179C77.7699 45.179 76.7599 44.9105 75.8736 44.3736C74.9872 43.8324 74.2884 43.0589 73.777 42.0533C73.2699 41.0476 73.0163 39.848 73.0163 38.4545C73.0163 37.0568 73.272 35.8572 73.7834 34.8558C74.2947 33.8501 74.9936 33.0788 75.88 32.5419C76.7663 32.0007 77.7741 31.7301 78.9034 31.7301C79.598 31.7301 80.2457 31.8303 80.8466 32.0305C81.4517 32.2266 81.995 32.5163 82.4766 32.8999C82.9581 33.2791 83.3565 33.7436 83.6719 34.2933C83.9872 34.8388 84.2003 35.4631 84.3111 36.1662ZM90.6568 45.1982C89.7363 45.1982 88.9331 44.9872 88.247 44.5653C87.5609 44.1435 87.0282 43.5533 86.649 42.7947C86.2697 42.0362 86.0801 41.1499 86.0801 40.1357C86.0801 39.1172 86.2697 38.2266 86.649 37.4638C87.0282 36.701 87.5609 36.1087 88.247 35.6868C88.9331 35.2649 89.7363 35.054 90.6568 35.054C91.5772 35.054 92.3805 35.2649 93.0666 35.6868C93.7527 36.1087 94.2853 36.701 94.6646 37.4638C95.0439 38.2266 95.2335 39.1172 95.2335 40.1357C95.2335 41.1499 95.0439 42.0362 94.6646 42.7947C94.2853 43.5533 93.7527 44.1435 93.0666 44.5653C92.3805 44.9872 91.5772 45.1982 90.6568 45.1982ZM90.6632 43.5938C91.2598 43.5938 91.7541 43.4361 92.1461 43.1207C92.5382 42.8054 92.8279 42.3857 93.0154 41.8615C93.2072 41.3374 93.3031 40.7599 93.3031 40.1293C93.3031 39.5028 93.2072 38.9276 93.0154 38.4034C92.8279 37.875 92.5382 37.451 92.1461 37.1314C91.7541 36.8118 91.2598 36.652 90.6632 36.652C90.0623 36.652 89.5637 36.8118 89.1674 37.1314C88.7754 37.451 88.4835 37.875 88.2917 38.4034C88.1042 38.9276 88.0105 39.5028 88.0105 40.1293C88.0105 40.7599 88.1042 41.3374 88.2917 41.8615C88.4835 42.3857 88.7754 42.8054 89.1674 43.1207C89.5637 43.4361 90.0623 43.5938 90.6632 43.5938ZM97.3668 45V35.1818H99.2013V36.7798H99.3228C99.5273 36.2386 99.8619 35.8168 100.326 35.5142C100.791 35.2074 101.347 35.054 101.995 35.054C102.651 35.054 103.201 35.2074 103.644 35.5142C104.091 35.821 104.422 36.2429 104.635 36.7798H104.737C104.971 36.2557 105.344 35.8381 105.855 35.527C106.367 35.2116 106.976 35.054 107.684 35.054C108.574 35.054 109.301 35.3331 109.863 35.8913C110.43 36.4496 110.713 37.2912 110.713 38.4162V45H108.802V38.5952C108.802 37.9304 108.621 37.4489 108.259 37.1506C107.897 36.8523 107.464 36.7031 106.961 36.7031C106.339 36.7031 105.855 36.8949 105.51 37.2784C105.165 37.6577 104.993 38.1456 104.993 38.7422V45H103.088V38.4737C103.088 37.9411 102.922 37.5128 102.589 37.1889C102.257 36.8651 101.824 36.7031 101.292 36.7031C100.929 36.7031 100.595 36.799 100.288 36.9908C99.9854 37.1783 99.7404 37.4403 99.5529 37.777C99.3697 38.1136 99.2781 38.5036 99.2781 38.9467V45H97.3668ZM117.948 35.1818V36.7159H112.399V35.1818H117.948ZM113.921 45V34.044C113.921 33.4304 114.055 32.9212 114.323 32.5163C114.592 32.1072 114.948 31.8026 115.391 31.6023C115.834 31.3977 116.316 31.2955 116.835 31.2955C117.219 31.2955 117.547 31.3274 117.82 31.3913C118.093 31.451 118.295 31.5064 118.427 31.5575L117.98 33.1044C117.89 33.0788 117.775 33.049 117.634 33.0149C117.494 32.9766 117.323 32.9574 117.123 32.9574C116.659 32.9574 116.326 33.0724 116.126 33.3026C115.93 33.5327 115.832 33.8651 115.832 34.2997V45H113.921ZM123.669 45.1982C122.748 45.1982 121.945 44.9872 121.259 44.5653C120.573 44.1435 120.04 43.5533 119.661 42.7947C119.281 42.0362 119.092 41.1499 119.092 40.1357C119.092 39.1172 119.281 38.2266 119.661 37.4638C120.04 36.701 120.573 36.1087 121.259 35.6868C121.945 35.2649 122.748 35.054 123.669 35.054C124.589 35.054 125.392 35.2649 126.078 35.6868C126.764 36.1087 127.297 36.701 127.676 37.4638C128.056 38.2266 128.245 39.1172 128.245 40.1357C128.245 41.1499 128.056 42.0362 127.676 42.7947C127.297 43.5533 126.764 44.1435 126.078 44.5653C125.392 44.9872 124.589 45.1982 123.669 45.1982ZM123.675 43.5938C124.271 43.5938 124.766 43.4361 125.158 43.1207C125.55 42.8054 125.84 42.3857 126.027 41.8615C126.219 41.3374 126.315 40.7599 126.315 40.1293C126.315 39.5028 126.219 38.9276 126.027 38.4034C125.84 37.875 125.55 37.451 125.158 37.1314C124.766 36.8118 124.271 36.652 123.675 36.652C123.074 36.652 122.575 36.8118 122.179 37.1314C121.787 37.451 121.495 37.875 121.303 38.4034C121.116 38.9276 121.022 39.5028 121.022 40.1293C121.022 40.7599 121.116 41.3374 121.303 41.8615C121.495 42.3857 121.787 42.8054 122.179 43.1207C122.575 43.4361 123.074 43.5938 123.675 43.5938ZM130.379 45V35.1818H132.226V36.7415H132.328C132.507 36.2131 132.822 35.7976 133.274 35.495C133.73 35.1882 134.246 35.0348 134.821 35.0348C134.94 35.0348 135.081 35.0391 135.243 35.0476C135.409 35.0561 135.539 35.0668 135.633 35.0795V36.9077C135.556 36.8864 135.42 36.8629 135.224 36.8374C135.028 36.8075 134.832 36.7926 134.636 36.7926C134.184 36.7926 133.781 36.8885 133.428 37.0803C133.078 37.2678 132.801 37.5298 132.597 37.8665C132.392 38.1989 132.29 38.5781 132.29 39.0043V45H130.379ZM142.45 35.1818V36.7159H137.087V35.1818H142.45ZM138.525 32.8295H140.436V42.1172C140.436 42.4879 140.492 42.767 140.603 42.9545C140.713 43.1378 140.856 43.2635 141.031 43.3317C141.21 43.3956 141.404 43.4276 141.613 43.4276C141.766 43.4276 141.9 43.4169 142.015 43.3956C142.13 43.3743 142.22 43.3572 142.284 43.3445L142.629 44.9233C142.518 44.9659 142.36 45.0085 142.156 45.0511C141.951 45.098 141.696 45.1236 141.389 45.1278C140.886 45.1364 140.417 45.0469 139.983 44.8594C139.548 44.6719 139.196 44.3821 138.928 43.9901C138.659 43.598 138.525 43.1058 138.525 42.5135V32.8295ZM149.481 45V31.9091H151.456V43.2997H157.388V45H149.481ZM163.624 45.1982C162.703 45.1982 161.9 44.9872 161.214 44.5653C160.528 44.1435 159.995 43.5533 159.616 42.7947C159.237 42.0362 159.047 41.1499 159.047 40.1357C159.047 39.1172 159.237 38.2266 159.616 37.4638C159.995 36.701 160.528 36.1087 161.214 35.6868C161.9 35.2649 162.703 35.054 163.624 35.054C164.544 35.054 165.347 35.2649 166.033 35.6868C166.719 36.1087 167.252 36.701 167.631 37.4638C168.011 38.2266 168.2 39.1172 168.2 40.1357C168.2 41.1499 168.011 42.0362 167.631 42.7947C167.252 43.5533 166.719 44.1435 166.033 44.5653C165.347 44.9872 164.544 45.1982 163.624 45.1982ZM163.63 43.5938C164.227 43.5938 164.721 43.4361 165.113 43.1207C165.505 42.8054 165.795 42.3857 165.982 41.8615C166.174 41.3374 166.27 40.7599 166.27 40.1293C166.27 39.5028 166.174 38.9276 165.982 38.4034C165.795 37.875 165.505 37.451 165.113 37.1314C164.721 36.8118 164.227 36.652 163.63 36.652C163.029 36.652 162.531 36.8118 162.134 37.1314C161.742 37.451 161.45 37.875 161.259 38.4034C161.071 38.9276 160.977 39.5028 160.977 40.1293C160.977 40.7599 161.071 41.3374 161.259 41.8615C161.45 42.3857 161.742 42.8054 162.134 43.1207C162.531 43.4361 163.029 43.5938 163.63 43.5938ZM176.553 40.9283V35.1818H178.471V45H176.591V43.2997H176.489C176.263 43.8239 175.901 44.2607 175.403 44.6101C174.908 44.9553 174.292 45.1278 173.555 45.1278C172.925 45.1278 172.366 44.9893 171.881 44.7124C171.399 44.4311 171.02 44.0156 170.743 43.4659C170.47 42.9162 170.334 42.2365 170.334 41.4268V35.1818H172.245V41.1967C172.245 41.8658 172.43 42.3984 172.801 42.7947C173.172 43.1911 173.653 43.3892 174.246 43.3892C174.604 43.3892 174.959 43.2997 175.313 43.1207C175.671 42.9418 175.967 42.6712 176.202 42.3089C176.44 41.9467 176.557 41.4865 176.553 40.9283ZM182.95 39.1705V45H181.039V35.1818H182.873V36.7798H182.995C183.221 36.2599 183.574 35.8423 184.056 35.527C184.542 35.2116 185.153 35.054 185.89 35.054C186.559 35.054 187.145 35.1946 187.648 35.4759C188.151 35.7528 188.541 36.1662 188.818 36.7159C189.095 37.2656 189.233 37.9453 189.233 38.755V45H187.322V38.9851C187.322 38.2734 187.137 37.7173 186.766 37.3168C186.395 36.9119 185.886 36.7095 185.238 36.7095C184.795 36.7095 184.401 36.8054 184.056 36.9972C183.715 37.1889 183.444 37.4702 183.244 37.8409C183.048 38.2074 182.95 38.6506 182.95 39.1705ZM195.913 48.8864C195.133 48.8864 194.462 48.7841 193.9 48.5795C193.341 48.375 192.885 48.1044 192.532 47.7678C192.178 47.4311 191.914 47.0625 191.739 46.6619L193.382 45.9844C193.497 46.1719 193.65 46.37 193.842 46.5788C194.038 46.7919 194.302 46.973 194.635 47.1222C194.971 47.2713 195.404 47.3459 195.932 47.3459C196.657 47.3459 197.255 47.169 197.728 46.8153C198.201 46.4659 198.438 45.9077 198.438 45.1406V43.2102H198.316C198.201 43.419 198.035 43.6513 197.818 43.907C197.605 44.1626 197.311 44.3842 196.936 44.5717C196.561 44.7592 196.073 44.853 195.472 44.853C194.696 44.853 193.998 44.6719 193.375 44.3097C192.757 43.9432 192.267 43.4041 191.905 42.6925C191.547 41.9766 191.368 41.0966 191.368 40.0526C191.368 39.0085 191.545 38.1136 191.899 37.3679C192.257 36.6222 192.747 36.0511 193.369 35.6548C193.991 35.2543 194.696 35.054 195.485 35.054C196.094 35.054 196.586 35.1562 196.961 35.3608C197.336 35.5611 197.628 35.7955 197.837 36.0639C198.05 36.3324 198.214 36.5689 198.329 36.7734H198.47V35.1818H200.343V45.2173C200.343 46.0611 200.147 46.7536 199.755 47.2947C199.363 47.8359 198.832 48.2365 198.163 48.4964C197.498 48.7564 196.748 48.8864 195.913 48.8864ZM195.894 43.2678C196.444 43.2678 196.908 43.1399 197.287 42.8842C197.671 42.6243 197.961 42.2536 198.157 41.772C198.357 41.2862 198.457 40.7045 198.457 40.027C198.457 39.3665 198.359 38.7848 198.163 38.282C197.967 37.7791 197.679 37.3871 197.3 37.1058C196.921 36.8203 196.452 36.6776 195.894 36.6776C195.319 36.6776 194.839 36.8267 194.456 37.125C194.072 37.419 193.782 37.8196 193.586 38.3267C193.395 38.8338 193.299 39.4006 193.299 40.027C193.299 40.6705 193.397 41.2351 193.593 41.7209C193.789 42.2067 194.078 42.5859 194.462 42.8587C194.85 43.1314 195.327 43.2678 195.894 43.2678ZM207.137 45.1982C206.17 45.1982 205.337 44.9915 204.638 44.5781C203.944 44.1605 203.407 43.5746 203.027 42.8203C202.652 42.0618 202.465 41.1733 202.465 40.1548C202.465 39.1491 202.652 38.2628 203.027 37.4957C203.407 36.7287 203.935 36.13 204.613 35.6996C205.294 35.2692 206.091 35.054 207.003 35.054C207.557 35.054 208.094 35.1456 208.614 35.3288C209.134 35.5121 209.6 35.7997 210.014 36.1918C210.427 36.5838 210.753 37.093 210.992 37.7195C211.23 38.3416 211.35 39.098 211.35 39.9886V40.6662H203.545V39.2344H209.477C209.477 38.7315 209.375 38.2862 209.17 37.8984C208.966 37.5064 208.678 37.1974 208.307 36.9716C207.941 36.7457 207.51 36.6328 207.016 36.6328C206.479 36.6328 206.01 36.7649 205.61 37.0291C205.213 37.2891 204.907 37.63 204.689 38.0518C204.476 38.4695 204.37 38.9233 204.37 39.4134V40.532C204.37 41.1882 204.485 41.7464 204.715 42.2067C204.949 42.6669 205.275 43.0185 205.693 43.2614C206.11 43.5 206.598 43.6193 207.157 43.6193C207.519 43.6193 207.849 43.5682 208.147 43.4659C208.446 43.3594 208.703 43.2017 208.921 42.9929C209.138 42.7841 209.304 42.5263 209.419 42.2195L211.228 42.5455C211.083 43.0781 210.824 43.5447 210.449 43.9453C210.078 44.3416 209.611 44.6506 209.049 44.8722C208.49 45.0895 207.853 45.1982 207.137 45.1982ZM220.828 37.5788L219.095 37.8857C219.023 37.6641 218.908 37.4531 218.75 37.2528C218.597 37.0526 218.388 36.8885 218.124 36.7607C217.86 36.6328 217.529 36.5689 217.133 36.5689C216.592 36.5689 216.14 36.6903 215.778 36.9332C215.416 37.1719 215.235 37.4808 215.235 37.8601C215.235 38.1882 215.356 38.4524 215.599 38.6527C215.842 38.853 216.234 39.017 216.775 39.1449L218.335 39.5028C219.238 39.7116 219.911 40.0334 220.355 40.468C220.798 40.9027 221.019 41.4673 221.019 42.1619C221.019 42.75 220.849 43.2741 220.508 43.7344C220.171 44.1903 219.7 44.5483 219.095 44.8082C218.494 45.0682 217.798 45.1982 217.005 45.1982C215.906 45.1982 215.009 44.9638 214.314 44.495C213.619 44.022 213.193 43.3509 213.036 42.4815L214.883 42.2003C214.998 42.6818 215.235 43.0462 215.593 43.2933C215.95 43.5362 216.417 43.6577 216.992 43.6577C217.619 43.6577 218.119 43.5277 218.494 43.2678C218.869 43.0036 219.057 42.6818 219.057 42.3026C219.057 41.9957 218.942 41.7379 218.712 41.5291C218.486 41.3203 218.139 41.1626 217.67 41.0561L216.008 40.6918C215.092 40.483 214.414 40.1506 213.975 39.6946C213.541 39.2386 213.323 38.6612 213.323 37.9624C213.323 37.3828 213.485 36.8757 213.809 36.4411C214.133 36.0064 214.58 35.6676 215.151 35.4247C215.722 35.1776 216.377 35.054 217.114 35.054C218.175 35.054 219.01 35.2841 219.619 35.7443C220.229 36.2003 220.632 36.8118 220.828 37.5788Z" fill="#263238"/>
<path d="M39.1111 28.4445V31.1111H36.4445V32.8889H39.1111V35.5556H40.8889V32.8889H43.5556V31.1111H40.8889V28.4445H39.1111Z" fill="#FFBB00"/>
<path fill-rule="evenodd" clip-rule="evenodd" d="M24 26.6667C24 25.9594 24.281 25.2811 24.781 24.781C25.2811 24.281 25.9594 24 26.6667 24H53.3333C54.0406 24 54.7189 24.281 55.219 24.781C55.719 25.2811 56 25.9594 56 26.6667V53.3333C56 54.0406 55.719 54.7189 55.219 55.219C54.7189 55.719 54.0406 56 53.3333 56H26.6667C25.9594 56 25.2811 55.719 24.781 55.219C24.281 54.7189 24 54.0406 24 53.3333V26.6667ZM25.7778 26.6667C25.7778 26.4309 25.8714 26.2048 26.0381 26.0381C26.2048 25.8714 26.4309 25.7778 26.6667 25.7778H53.3333C53.5691 25.7778 53.7952 25.8714 53.9619 26.0381C54.1286 26.2048 54.2222 26.4309 54.2222 26.6667V49.7778H51.8524C51.8524 49.722 51.847 49.6663 51.8364 49.6116L50.6898 43.5964L52.4098 37.5778C52.4746 37.3511 52.4467 37.108 52.3323 36.9018C52.2179 36.6957 52.0262 36.5435 51.7996 36.4787C51.5729 36.4138 51.3297 36.4417 51.1236 36.5561C50.9175 36.6706 50.7653 36.8622 50.7004 37.0889L49.6347 40.8204H42.6667V42.5982H43.8293V44.1022H43.3502C43.1451 44.1021 42.9463 44.173 42.7874 44.3028C42.6286 44.4325 42.5195 44.6132 42.4787 44.8143C42.4379 45.0153 42.4679 45.2242 42.5635 45.4057C42.6592 45.5871 42.8146 45.7299 43.0036 45.8098L41.8196 49.5076C41.7918 49.5949 41.7777 49.6861 41.7778 49.7778H38.2222C38.2221 49.6857 38.2077 49.5943 38.1796 49.5067L36.9973 45.8098C37.1858 45.7295 37.3407 45.5866 37.4359 45.4053C37.5312 45.224 37.5608 45.0153 37.52 44.8146C37.4791 44.6139 37.3702 44.4335 37.2116 44.3039C37.0531 44.1742 36.8546 44.1033 36.6498 44.1031H36.1707V42.5982H37.3333V40.8204H30.3644L29.2987 37.0889C29.2693 36.9737 29.2171 36.8655 29.1452 36.7708C29.0733 36.6761 28.9831 36.5968 28.88 36.5375C28.7769 36.4783 28.6629 36.4404 28.5449 36.426C28.4268 36.4116 28.3071 36.4211 28.1927 36.4538C28.0784 36.4865 27.9718 36.5418 27.8793 36.6165C27.7867 36.6911 27.7101 36.7836 27.6539 36.8884C27.5977 36.9932 27.5631 37.1082 27.5522 37.2266C27.5412 37.3451 27.5542 37.4645 27.5902 37.5778L29.3093 43.5964L28.1636 49.6116C28.1531 49.6663 28.1477 49.722 28.1476 49.7778H25.7778V26.6667ZM53.3333 54.2222C53.5691 54.2222 53.7952 54.1286 53.9619 53.9619C54.1286 53.7952 54.2222 53.5691 54.2222 53.3333V51.5556H25.7778V53.3333C25.7778 53.5691 25.8714 53.7952 26.0381 53.9619C26.2048 54.1286 26.4309 54.2222 26.6667 54.2222H53.3333ZM48.9049 43.7218L48.9769 44.1022H45.6071V42.5982H49.1271L48.9227 43.3111C48.8847 43.4447 48.8786 43.5854 48.9049 43.7218ZM50.0578 49.7778L49.3804 46.2222H44.7378L43.6 49.7778H50.0578ZM31.0951 43.7218L31.0231 44.1022H34.3929V42.5982H30.8729L31.0773 43.3111C31.1153 43.4447 31.1214 43.5854 31.0951 43.7218ZM29.9422 49.7778L30.6196 46.2222H35.2622L36.4 49.7778H29.9422Z" fill="#FFBB00" stroke="#FFBB00" stroke-width="0.5"/>
</svg>
