<svg width="300" height="80" viewBox="0 0 300 80" fill="none" xmlns="http://www.w3.org/2000/svg">
<path d="M82.2976 36.0447C82.174 35.657 82.0078 35.3097 81.799 35.0028C81.5945 34.6918 81.3494 34.4276 81.0639 34.2102C80.7784 33.9886 80.4524 33.8203 80.0859 33.7053C79.7237 33.5902 79.3253 33.5327 78.8906 33.5327C78.1534 33.5327 77.4886 33.7223 76.8963 34.1016C76.304 34.4808 75.8352 35.0369 75.4901 35.7699C75.1491 36.4986 74.9787 37.3913 74.9787 38.4482C74.9787 39.5092 75.1513 40.4062 75.4964 41.1392C75.8416 41.8722 76.3146 42.4283 76.9155 42.8075C77.5163 43.1868 78.2003 43.3764 78.9673 43.3764C79.679 43.3764 80.299 43.2315 80.8274 42.9418C81.3601 42.652 81.7713 42.2429 82.0611 41.7145C82.3551 41.1818 82.5021 40.5554 82.5021 39.8352L83.0135 39.9311H79.2678V38.3011H84.4134V39.7905C84.4134 40.8899 84.179 41.8445 83.7102 42.6541C83.2457 43.4595 82.6023 44.0817 81.7798 44.5206C80.9616 44.9595 80.0241 45.179 78.9673 45.179C77.7827 45.179 76.7429 44.9062 75.848 44.3608C74.9574 43.8153 74.2628 43.0419 73.7642 42.0405C73.2656 41.0348 73.0163 39.8416 73.0163 38.4609C73.0163 37.4169 73.1612 36.4794 73.451 35.6484C73.7408 34.8175 74.1477 34.1122 74.6719 33.5327C75.2003 32.9489 75.8203 32.5036 76.532 32.1967C77.2479 31.8857 78.0298 31.7301 78.8778 31.7301C79.5852 31.7301 80.2436 31.8345 80.853 32.0433C81.4666 32.2521 82.0121 32.5483 82.4893 32.9318C82.9709 33.3153 83.3693 33.7713 83.6847 34.2997C84 34.8239 84.2131 35.4055 84.3239 36.0447H82.2976ZM87.9753 48.6818C87.6898 48.6818 87.4299 48.6584 87.1955 48.6115C86.9611 48.5689 86.7864 48.522 86.6713 48.4709L87.1316 46.9048C87.481 46.9986 87.7921 47.0391 88.0648 47.0263C88.3375 47.0135 88.5783 46.9112 88.7871 46.7195C89.0002 46.5277 89.1877 46.2145 89.3496 45.7798L89.5861 45.1278L85.9938 35.1818H88.0392L90.5257 42.8011H90.628L93.1145 35.1818H95.1664L91.1202 46.3104C90.9327 46.8217 90.6941 47.2543 90.4043 47.608C90.1145 47.9659 89.7694 48.2344 89.3688 48.4134C88.9682 48.5923 88.5037 48.6818 87.9753 48.6818ZM96.9625 45V35.1818H98.7971V36.7798H98.9185C99.123 36.2386 99.4576 35.8168 99.9221 35.5142C100.387 35.2074 100.943 35.054 101.59 35.054C102.247 35.054 102.796 35.2074 103.24 35.5142C103.687 35.821 104.017 36.2429 104.23 36.7798H104.333C104.567 36.2557 104.94 35.8381 105.451 35.527C105.963 35.2116 106.572 35.054 107.279 35.054C108.17 35.054 108.896 35.3331 109.459 35.8913C110.026 36.4496 110.309 37.2912 110.309 38.4162V45H108.398V38.5952C108.398 37.9304 108.217 37.4489 107.855 37.1506C107.492 36.8523 107.06 36.7031 106.557 36.7031C105.935 36.7031 105.451 36.8949 105.106 37.2784C104.761 37.6577 104.588 38.1456 104.588 38.7422V45H102.683V38.4737C102.683 37.9411 102.517 37.5128 102.185 37.1889C101.852 36.8651 101.42 36.7031 100.887 36.7031C100.525 36.7031 100.191 36.799 99.8837 36.9908C99.5811 37.1783 99.3361 37.4403 99.1486 37.777C98.9654 38.1136 98.8738 38.5036 98.8738 38.9467V45H96.9625ZM117.788 45V31.9091H125.906V33.6094H119.763V37.598H125.324V39.2919H119.763V45H117.788ZM131.003 45.2173C130.381 45.2173 129.819 45.1023 129.316 44.8722C128.813 44.6378 128.415 44.299 128.121 43.8558C127.831 43.4126 127.686 42.8693 127.686 42.2259C127.686 41.6719 127.792 41.2159 128.006 40.858C128.219 40.5 128.506 40.2166 128.868 40.0078C129.231 39.799 129.635 39.6413 130.083 39.5348C130.53 39.4283 130.986 39.3473 131.451 39.2919C132.039 39.2237 132.516 39.1683 132.883 39.1257C133.249 39.0788 133.515 39.0043 133.682 38.902C133.848 38.7997 133.931 38.6335 133.931 38.4034V38.3587C133.931 37.8004 133.773 37.3679 133.458 37.0611C133.147 36.7543 132.682 36.6009 132.064 36.6009C131.421 36.6009 130.914 36.7436 130.543 37.0291C130.177 37.3104 129.923 37.6236 129.782 37.9688L127.986 37.5597C128.199 36.9631 128.51 36.4815 128.92 36.1151C129.333 35.7443 129.808 35.4759 130.345 35.3097C130.882 35.1392 131.447 35.054 132.039 35.054C132.431 35.054 132.846 35.1009 133.285 35.1946C133.729 35.2841 134.142 35.4503 134.525 35.6932C134.913 35.9361 135.231 36.2834 135.478 36.7351C135.725 37.1825 135.849 37.7642 135.849 38.4801V45H133.982V43.6577H133.905C133.782 43.9048 133.596 44.1477 133.349 44.3864C133.102 44.625 132.785 44.8232 132.397 44.9808C132.009 45.1385 131.545 45.2173 131.003 45.2173ZM131.419 43.6832C131.947 43.6832 132.399 43.5788 132.774 43.37C133.153 43.1612 133.441 42.8885 133.637 42.5518C133.837 42.2109 133.937 41.8466 133.937 41.4588V40.1932C133.869 40.2614 133.737 40.3253 133.541 40.3849C133.349 40.4403 133.13 40.4893 132.883 40.532C132.635 40.5703 132.395 40.6065 132.16 40.6406C131.926 40.6705 131.73 40.696 131.572 40.7173C131.202 40.7642 130.863 40.843 130.556 40.9538C130.253 41.0646 130.01 41.2244 129.827 41.4332C129.648 41.6378 129.559 41.9105 129.559 42.2514C129.559 42.7244 129.733 43.0824 130.083 43.3253C130.432 43.5639 130.878 43.6832 131.419 43.6832ZM142.53 45.1982C141.58 45.1982 140.761 44.983 140.075 44.5526C139.393 44.1179 138.869 43.5192 138.503 42.7564C138.136 41.9936 137.953 41.12 137.953 40.1357C137.953 39.1385 138.141 38.2585 138.516 37.4957C138.891 36.7287 139.419 36.13 140.101 35.6996C140.783 35.2692 141.586 35.054 142.511 35.054C143.256 35.054 143.921 35.1925 144.505 35.4695C145.089 35.7422 145.56 36.1257 145.918 36.62C146.28 37.1143 146.495 37.6918 146.563 38.3523H144.703C144.601 37.892 144.366 37.4957 144 37.1634C143.638 36.831 143.152 36.6648 142.543 36.6648C142.01 36.6648 141.543 36.8054 141.143 37.0866C140.746 37.3636 140.438 37.7599 140.216 38.2756C139.994 38.7869 139.884 39.392 139.884 40.0909C139.884 40.8068 139.992 41.4247 140.21 41.9446C140.427 42.4645 140.734 42.8672 141.13 43.1527C141.531 43.4382 142.001 43.581 142.543 43.581C142.905 43.581 143.233 43.5149 143.527 43.3828C143.825 43.2464 144.075 43.0526 144.275 42.8011C144.479 42.5497 144.622 42.2472 144.703 41.8935H146.563C146.495 42.5284 146.288 43.0952 145.943 43.5938C145.598 44.0923 145.136 44.4844 144.556 44.7699C143.981 45.0554 143.305 45.1982 142.53 45.1982ZM148.607 45V35.1818H150.518V45H148.607ZM149.572 33.6669C149.24 33.6669 148.954 33.5561 148.716 33.3345C148.481 33.1087 148.364 32.8402 148.364 32.5291C148.364 32.2138 148.481 31.9453 148.716 31.7237C148.954 31.4979 149.24 31.3849 149.572 31.3849C149.905 31.3849 150.188 31.4979 150.422 31.7237C150.661 31.9453 150.78 32.2138 150.78 32.5291C150.78 32.8402 150.661 33.1087 150.422 33.3345C150.188 33.5561 149.905 33.6669 149.572 33.6669ZM155.001 31.9091V45H153.089V31.9091H155.001ZM157.572 45V35.1818H159.483V45H157.572ZM158.537 33.6669C158.205 33.6669 157.919 33.5561 157.681 33.3345C157.446 33.1087 157.329 32.8402 157.329 32.5291C157.329 32.2138 157.446 31.9453 157.681 31.7237C157.919 31.4979 158.205 31.3849 158.537 31.3849C158.869 31.3849 159.153 31.4979 159.387 31.7237C159.626 31.9453 159.745 32.2138 159.745 32.5291C159.745 32.8402 159.626 33.1087 159.387 33.3345C159.153 33.5561 158.869 33.6669 158.537 33.6669ZM166.637 35.1818V36.7159H161.275V35.1818H166.637ZM162.713 32.8295H164.624V42.1172C164.624 42.4879 164.679 42.767 164.79 42.9545C164.901 43.1378 165.044 43.2635 165.218 43.3317C165.397 43.3956 165.591 43.4276 165.8 43.4276C165.953 43.4276 166.088 43.4169 166.203 43.3956C166.318 43.3743 166.407 43.3572 166.471 43.3445L166.816 44.9233C166.706 44.9659 166.548 45.0085 166.343 45.0511C166.139 45.098 165.883 45.1236 165.576 45.1278C165.074 45.1364 164.605 45.0469 164.17 44.8594C163.735 44.6719 163.384 44.3821 163.115 43.9901C162.847 43.598 162.713 43.1058 162.713 42.5135V32.8295ZM168.752 45V35.1818H170.663V45H168.752ZM169.717 33.6669C169.384 33.6669 169.099 33.5561 168.86 33.3345C168.626 33.1087 168.509 32.8402 168.509 32.5291C168.509 32.2138 168.626 31.9453 168.86 31.7237C169.099 31.4979 169.384 31.3849 169.717 31.3849C170.049 31.3849 170.333 31.4979 170.567 31.7237C170.806 31.9453 170.925 32.2138 170.925 32.5291C170.925 32.8402 170.806 33.1087 170.567 33.3345C170.333 33.5561 170.049 33.6669 169.717 33.6669ZM177.466 45.1982C176.498 45.1982 175.665 44.9915 174.966 44.5781C174.272 44.1605 173.735 43.5746 173.355 42.8203C172.98 42.0618 172.793 41.1733 172.793 40.1548C172.793 39.1491 172.98 38.2628 173.355 37.4957C173.735 36.7287 174.263 36.13 174.941 35.6996C175.623 35.2692 176.419 35.054 177.331 35.054C177.885 35.054 178.422 35.1456 178.942 35.3288C179.462 35.5121 179.929 35.7997 180.342 36.1918C180.755 36.5838 181.081 37.093 181.32 37.7195C181.559 38.3416 181.678 39.098 181.678 39.9886V40.6662H173.873V39.2344H179.805C179.805 38.7315 179.703 38.2862 179.498 37.8984C179.294 37.5064 179.006 37.1974 178.635 36.9716C178.269 36.7457 177.838 36.6328 177.344 36.6328C176.807 36.6328 176.338 36.7649 175.938 37.0291C175.542 37.2891 175.235 37.63 175.017 38.0518C174.804 38.4695 174.698 38.9233 174.698 39.4134V40.532C174.698 41.1882 174.813 41.7464 175.043 42.2067C175.277 42.6669 175.603 43.0185 176.021 43.2614C176.439 43.5 176.926 43.6193 177.485 43.6193C177.847 43.6193 178.177 43.5682 178.475 43.4659C178.774 43.3594 179.032 43.2017 179.249 42.9929C179.466 42.7841 179.632 42.5263 179.748 42.2195L181.556 42.5455C181.412 43.0781 181.152 43.5447 180.777 43.9453C180.406 44.3416 179.939 44.6506 179.377 44.8722C178.819 45.0895 178.181 45.1982 177.466 45.1982ZM191.156 37.5788L189.423 37.8857C189.351 37.6641 189.236 37.4531 189.078 37.2528C188.925 37.0526 188.716 36.8885 188.452 36.7607C188.188 36.6328 187.857 36.5689 187.461 36.5689C186.92 36.5689 186.468 36.6903 186.106 36.9332C185.744 37.1719 185.563 37.4808 185.563 37.8601C185.563 38.1882 185.684 38.4524 185.927 38.6527C186.17 38.853 186.562 39.017 187.103 39.1449L188.663 39.5028C189.566 39.7116 190.24 40.0334 190.683 40.468C191.126 40.9027 191.347 41.4673 191.347 42.1619C191.347 42.75 191.177 43.2741 190.836 43.7344C190.499 44.1903 190.029 44.5483 189.423 44.8082C188.823 45.0682 188.126 45.1982 187.333 45.1982C186.234 45.1982 185.337 44.9638 184.642 44.495C183.948 44.022 183.521 43.3509 183.364 42.4815L185.211 42.2003C185.326 42.6818 185.563 43.0462 185.921 43.2933C186.279 43.5362 186.745 43.6577 187.32 43.6577C187.947 43.6577 188.448 43.5277 188.823 43.2678C189.198 43.0036 189.385 42.6818 189.385 42.3026C189.385 41.9957 189.27 41.7379 189.04 41.5291C188.814 41.3203 188.467 41.1626 187.998 41.0561L186.336 40.6918C185.42 40.483 184.742 40.1506 184.303 39.6946C183.869 39.2386 183.651 38.6612 183.651 37.9624C183.651 37.3828 183.813 36.8757 184.137 36.4411C184.461 36.0064 184.909 35.6676 185.48 35.4247C186.051 35.1776 186.705 35.054 187.442 35.054C188.503 35.054 189.338 35.2841 189.948 35.7443C190.557 36.2003 190.96 36.8118 191.156 37.5788Z" fill="#263238"/>
<path d="M33.3087 32H29.236C29.0045 32 28.7826 32.1011 28.6189 32.2812C28.4552 32.4612 28.3633 32.7054 28.3633 32.96V47.04C28.3633 47.1661 28.3859 47.2909 28.4297 47.4074C28.4736 47.5238 28.5379 47.6297 28.6189 47.7188C28.6999 47.808 28.7961 47.8787 28.902 47.9269C29.0079 47.9752 29.1214 48 29.236 48H33.3087C33.4233 48 33.5368 47.9752 33.6427 47.9269C33.7486 47.8787 33.8448 47.808 33.9258 47.7188C34.0069 47.6297 34.0712 47.5238 34.115 47.4074C34.1589 47.2909 34.1815 47.1661 34.1815 47.04V32.96C34.1815 32.7054 34.0895 32.4612 33.9258 32.2812C33.7622 32.1011 33.5402 32 33.3087 32ZM50.7633 32H46.6906C46.4591 32 46.2371 32.1011 46.0734 32.2812C45.9098 32.4612 45.8178 32.7054 45.8178 32.96V47.04C45.8178 47.1661 45.8404 47.2909 45.8843 47.4074C45.9281 47.5238 45.9924 47.6297 46.0734 47.7188C46.1545 47.808 46.2507 47.8787 46.3566 47.9269C46.4625 47.9752 46.5759 48 46.6906 48H50.7633C50.8779 48 50.9914 47.9752 51.0973 47.9269C51.2031 47.8787 51.2994 47.808 51.3804 47.7188C51.4614 47.6297 51.5257 47.5238 51.5696 47.4074C51.6134 47.2909 51.636 47.1661 51.636 47.04V32.96C51.636 32.7054 51.5441 32.4612 51.3804 32.2812C51.2167 32.1011 50.9947 32 50.7633 32Z" stroke="#FFBB00" stroke-width="2.5" stroke-linecap="round" stroke-linejoin="round"/>
<path d="M34.1818 40H45.8182M24 43.84V36.16C24 35.9053 24.0919 35.6612 24.2556 35.4811C24.4193 35.3011 24.6413 35.2 24.8727 35.2H27.4909C27.7224 35.2 27.9444 35.3011 28.108 35.4811C28.2717 35.6612 28.3636 35.9053 28.3636 36.16V43.84C28.3636 44.0946 28.2717 44.3387 28.108 44.5188C27.9444 44.6988 27.7224 44.8 27.4909 44.8H24.8727C24.6413 44.8 24.4193 44.6988 24.2556 44.5188C24.0919 44.3387 24 44.0946 24 43.84ZM56 43.84V36.16C56 35.9053 55.9081 35.6612 55.7444 35.4811C55.5807 35.3011 55.3587 35.2 55.1273 35.2H52.5091C52.2776 35.2 52.0556 35.3011 51.892 35.4811C51.7283 35.6612 51.6364 35.9053 51.6364 36.16V43.84C51.6364 44.0946 51.7283 44.3387 51.892 44.5188C52.0556 44.6988 52.2776 44.8 52.5091 44.8H55.1273C55.3587 44.8 55.5807 44.6988 55.7444 44.5188C55.9081 44.3387 56 44.0946 56 43.84Z" stroke="#FFBB00" stroke-width="2.5" stroke-linecap="round" stroke-linejoin="round"/>
</svg>
