<svg width="300" height="80" viewBox="0 0 300 80" fill="none" xmlns="http://www.w3.org/2000/svg">
<path d="M73.4382 45V31.9091H75.4134V37.598H81.9396V31.9091H83.9212V45H81.9396V39.2919H75.4134V45H73.4382ZM86.6442 45V35.1818H88.5554V45H86.6442ZM87.6094 33.6669C87.277 33.6669 86.9915 33.5561 86.7528 33.3345C86.5185 33.1087 86.4013 32.8402 86.4013 32.5291C86.4013 32.2138 86.5185 31.9453 86.7528 31.7237C86.9915 31.4979 87.277 31.3849 87.6094 31.3849C87.9418 31.3849 88.2251 31.4979 88.4595 31.7237C88.6982 31.9453 88.8175 32.2138 88.8175 32.5291C88.8175 32.8402 88.6982 33.1087 88.4595 33.3345C88.2251 33.5561 87.9418 33.6669 87.6094 33.6669ZM95.2431 48.8864C94.4632 48.8864 93.7921 48.7841 93.2296 48.5795C92.6713 48.375 92.2154 48.1044 91.8617 47.7678C91.508 47.4311 91.2438 47.0625 91.0691 46.6619L92.7118 45.9844C92.8269 46.1719 92.9803 46.37 93.1721 46.5788C93.3681 46.7919 93.6323 46.973 93.9647 47.1222C94.3013 47.2713 94.7338 47.3459 95.2623 47.3459C95.9867 47.3459 96.5854 47.169 97.0584 46.8153C97.5314 46.4659 97.7679 45.9077 97.7679 45.1406V43.2102H97.6465C97.5314 43.419 97.3652 43.6513 97.1479 43.907C96.9348 44.1626 96.6408 44.3842 96.2658 44.5717C95.8908 44.7592 95.4029 44.853 94.802 44.853C94.0265 44.853 93.3276 44.6719 92.7054 44.3097C92.0875 43.9432 91.5975 43.4041 91.2353 42.6925C90.8773 41.9766 90.6983 41.0966 90.6983 40.0526C90.6983 39.0085 90.8752 38.1136 91.2289 37.3679C91.5868 36.6222 92.0769 36.0511 92.699 35.6548C93.3212 35.2543 94.0265 35.054 94.8148 35.054C95.4242 35.054 95.9164 35.1562 96.2914 35.3608C96.6664 35.5611 96.9583 35.7955 97.1671 36.0639C97.3801 36.3324 97.5442 36.5689 97.6593 36.7734H97.7999V35.1818H99.6728V45.2173C99.6728 46.0611 99.4767 46.7536 99.0847 47.2947C98.6926 47.8359 98.1621 48.2365 97.4931 48.4964C96.8283 48.7564 96.0783 48.8864 95.2431 48.8864ZM95.2239 43.2678C95.7736 43.2678 96.2381 43.1399 96.6174 42.8842C97.0009 42.6243 97.2907 42.2536 97.4867 41.772C97.687 41.2862 97.7871 40.7045 97.7871 40.027C97.7871 39.3665 97.6891 38.7848 97.4931 38.282C97.2971 37.7791 97.0094 37.3871 96.6301 37.1058C96.2509 36.8203 95.7821 36.6776 95.2239 36.6776C94.6486 36.6776 94.1692 36.8267 93.7857 37.125C93.4022 37.419 93.1124 37.8196 92.9164 38.3267C92.7246 38.8338 92.6287 39.4006 92.6287 40.027C92.6287 40.6705 92.7267 41.2351 92.9228 41.7209C93.1188 42.2067 93.4086 42.5859 93.7921 42.8587C94.1799 43.1314 94.6571 43.2678 95.2239 43.2678ZM104.147 39.1705V45H102.236V31.9091H104.122V36.7798H104.243C104.473 36.2514 104.825 35.8317 105.298 35.5206C105.771 35.2095 106.389 35.054 107.151 35.054C107.825 35.054 108.413 35.1925 108.916 35.4695C109.423 35.7464 109.815 36.1598 110.092 36.7095C110.373 37.255 110.514 37.9368 110.514 38.755V45H108.602V38.9851C108.602 38.2649 108.417 37.7067 108.046 37.3104C107.676 36.9098 107.16 36.7095 106.499 36.7095C106.048 36.7095 105.643 36.8054 105.285 36.9972C104.931 37.1889 104.652 37.4702 104.448 37.8409C104.247 38.2074 104.147 38.6506 104.147 39.1705ZM118.849 38.6399V40.2955H113.045V38.6399H118.849ZM128.689 35.348C128.621 34.7429 128.34 34.2741 127.846 33.9418C127.351 33.6051 126.729 33.4368 125.979 33.4368C125.442 33.4368 124.978 33.522 124.586 33.6925C124.194 33.8587 123.889 34.0888 123.672 34.3828C123.459 34.6726 123.352 35.0028 123.352 35.3736C123.352 35.6847 123.425 35.9531 123.569 36.179C123.719 36.4048 123.912 36.5945 124.151 36.7479C124.394 36.897 124.654 37.0227 124.931 37.125C125.208 37.223 125.474 37.304 125.73 37.3679L127.008 37.7003C127.426 37.8026 127.854 37.9411 128.293 38.1158C128.732 38.2905 129.139 38.5206 129.514 38.8061C129.889 39.0916 130.192 39.4453 130.422 39.8672C130.656 40.2891 130.773 40.794 130.773 41.3821C130.773 42.1236 130.581 42.782 130.198 43.3572C129.819 43.9325 129.267 44.3864 128.542 44.7188C127.822 45.0511 126.951 45.2173 125.928 45.2173C124.948 45.2173 124.1 45.0618 123.384 44.7507C122.668 44.4396 122.108 43.9986 121.703 43.4276C121.298 42.8523 121.074 42.1705 121.032 41.3821H123.013C123.052 41.8551 123.205 42.2493 123.474 42.5646C123.746 42.8757 124.094 43.108 124.515 43.2614C124.942 43.4105 125.408 43.4851 125.915 43.4851C126.474 43.4851 126.97 43.3977 127.405 43.223C127.844 43.044 128.189 42.7969 128.44 42.4815C128.692 42.1619 128.817 41.7891 128.817 41.3629C128.817 40.9751 128.706 40.6577 128.485 40.4105C128.268 40.1634 127.971 39.9588 127.596 39.7969C127.226 39.6349 126.806 39.4922 126.337 39.3686L124.79 38.9467C123.742 38.6612 122.911 38.2415 122.297 37.6875C121.688 37.1335 121.383 36.4006 121.383 35.4886C121.383 34.7344 121.588 34.076 121.997 33.5135C122.406 32.951 122.96 32.5142 123.659 32.2031C124.358 31.8878 125.146 31.7301 126.024 31.7301C126.91 31.7301 127.692 31.8857 128.37 32.1967C129.052 32.5078 129.589 32.9361 129.981 33.4815C130.373 34.0227 130.577 34.6449 130.594 35.348H128.689ZM132.98 48.6818V35.1818H134.847V36.7734H135.006C135.117 36.5689 135.277 36.3324 135.486 36.0639C135.695 35.7955 135.984 35.5611 136.355 35.3608C136.726 35.1562 137.216 35.054 137.825 35.054C138.618 35.054 139.325 35.2543 139.947 35.6548C140.57 36.0554 141.058 36.6328 141.411 37.3871C141.769 38.1413 141.948 39.049 141.948 40.1101C141.948 41.1712 141.771 42.081 141.418 42.8395C141.064 43.5937 140.578 44.1754 139.96 44.5845C139.342 44.9893 138.637 45.1918 137.844 45.1918C137.248 45.1918 136.76 45.0916 136.381 44.8913C136.006 44.6911 135.712 44.4567 135.499 44.1882C135.286 43.9197 135.121 43.6811 135.006 43.4723H134.891V48.6818H132.98ZM134.853 40.0909C134.853 40.7812 134.953 41.3864 135.153 41.9062C135.354 42.4261 135.643 42.8331 136.023 43.1271C136.402 43.4169 136.866 43.5618 137.416 43.5618C137.987 43.5618 138.464 43.4105 138.848 43.108C139.232 42.8011 139.521 42.3857 139.717 41.8615C139.918 41.3374 140.018 40.7472 140.018 40.0909C140.018 39.4432 139.92 38.8615 139.724 38.3459C139.532 37.8303 139.242 37.4233 138.854 37.125C138.471 36.8267 137.991 36.6776 137.416 36.6776C136.862 36.6776 136.393 36.8203 136.01 37.1058C135.631 37.3913 135.343 37.7898 135.147 38.3011C134.951 38.8125 134.853 39.4091 134.853 40.0909ZM148.321 45.1982C147.354 45.1982 146.521 44.9915 145.822 44.5781C145.127 44.1605 144.59 43.5746 144.211 42.8203C143.836 42.0618 143.648 41.1733 143.648 40.1548C143.648 39.1491 143.836 38.2628 144.211 37.4957C144.59 36.7287 145.119 36.13 145.796 35.6996C146.478 35.2692 147.275 35.054 148.187 35.054C148.741 35.054 149.278 35.1456 149.798 35.3288C150.317 35.5121 150.784 35.7997 151.197 36.1918C151.611 36.5838 151.937 37.093 152.175 37.7195C152.414 38.3416 152.533 39.098 152.533 39.9886V40.6662H144.729V39.2344H150.661C150.661 38.7315 150.558 38.2862 150.354 37.8984C150.149 37.5064 149.862 37.1974 149.491 36.9716C149.124 36.7457 148.694 36.6328 148.2 36.6328C147.663 36.6328 147.194 36.7649 146.793 37.0291C146.397 37.2891 146.09 37.63 145.873 38.0518C145.66 38.4695 145.553 38.9233 145.553 39.4134V40.532C145.553 41.1882 145.668 41.7464 145.898 42.2067C146.133 42.6669 146.459 43.0185 146.876 43.2614C147.294 43.5 147.782 43.6193 148.34 43.6193C148.702 43.6193 149.033 43.5682 149.331 43.4659C149.629 43.3594 149.887 43.2017 150.104 42.9929C150.322 42.7841 150.488 42.5263 150.603 42.2195L152.412 42.5455C152.267 43.0781 152.007 43.5447 151.632 43.9453C151.261 44.3416 150.795 44.6506 150.232 44.8722C149.674 45.0895 149.037 45.1982 148.321 45.1982ZM158.885 45.1982C157.918 45.1982 157.085 44.9915 156.386 44.5781C155.692 44.1605 155.155 43.5746 154.775 42.8203C154.4 42.0618 154.213 41.1733 154.213 40.1548C154.213 39.1491 154.4 38.2628 154.775 37.4957C155.155 36.7287 155.683 36.13 156.361 35.6996C157.042 35.2692 157.839 35.054 158.751 35.054C159.305 35.054 159.842 35.1456 160.362 35.3288C160.882 35.5121 161.349 35.7997 161.762 36.1918C162.175 36.5838 162.501 37.093 162.74 37.7195C162.979 38.3416 163.098 39.098 163.098 39.9886V40.6662H155.293V39.2344H161.225C161.225 38.7315 161.123 38.2862 160.918 37.8984C160.714 37.5064 160.426 37.1974 160.055 36.9716C159.689 36.7457 159.258 36.6328 158.764 36.6328C158.227 36.6328 157.758 36.7649 157.358 37.0291C156.961 37.2891 156.655 37.63 156.437 38.0518C156.224 38.4695 156.118 38.9233 156.118 39.4134V40.532C156.118 41.1882 156.233 41.7464 156.463 42.2067C156.697 42.6669 157.023 43.0185 157.441 43.2614C157.858 43.5 158.346 43.6193 158.905 43.6193C159.267 43.6193 159.597 43.5682 159.895 43.4659C160.194 43.3594 160.452 43.2017 160.669 42.9929C160.886 42.7841 161.052 42.5263 161.167 42.2195L162.976 42.5455C162.831 43.0781 162.572 43.5447 162.197 43.9453C161.826 44.3416 161.359 44.6506 160.797 44.8722C160.238 45.0895 159.601 45.1982 158.885 45.1982ZM168.894 45.1918C168.101 45.1918 167.394 44.9893 166.772 44.5845C166.154 44.1754 165.668 43.5937 165.314 42.8395C164.965 42.081 164.79 41.1712 164.79 40.1101C164.79 39.049 164.967 38.1413 165.321 37.3871C165.679 36.6328 166.169 36.0554 166.791 35.6548C167.413 35.2543 168.118 35.054 168.907 35.054C169.516 35.054 170.006 35.1562 170.377 35.3608C170.752 35.5611 171.042 35.7955 171.246 36.0639C171.455 36.3324 171.617 36.5689 171.732 36.7734H171.847V31.9091H173.758V45H171.892V43.4723H171.732C171.617 43.6811 171.451 43.9197 171.233 44.1882C171.02 44.4567 170.726 44.6911 170.351 44.8913C169.976 45.0916 169.49 45.1918 168.894 45.1918ZM169.316 43.5618C169.865 43.5618 170.33 43.4169 170.709 43.1271C171.093 42.8331 171.382 42.4261 171.578 41.9062C171.779 41.3864 171.879 40.7812 171.879 40.0909C171.879 39.4091 171.781 38.8125 171.585 38.3011C171.389 37.7898 171.101 37.3913 170.722 37.1058C170.343 36.8203 169.874 36.6776 169.316 36.6776C168.74 36.6776 168.261 36.8267 167.877 37.125C167.494 37.4233 167.204 37.8303 167.008 38.3459C166.816 38.8615 166.721 39.4432 166.721 40.0909C166.721 40.7472 166.819 41.3374 167.015 41.8615C167.211 42.3857 167.5 42.8011 167.884 43.108C168.272 43.4105 168.749 43.5618 169.316 43.5618ZM183.966 45L180.336 31.9091H182.413L184.963 42.0469H185.085L187.738 31.9091H189.796L192.449 42.0533H192.57L195.114 31.9091H197.198L193.561 45H191.573L188.818 35.1946H188.716L185.961 45H183.966ZM198.845 45V35.1818H200.757V45H198.845ZM199.811 33.6669C199.478 33.6669 199.193 33.5561 198.954 33.3345C198.72 33.1087 198.602 32.8402 198.602 32.5291C198.602 32.2138 198.72 31.9453 198.954 31.7237C199.193 31.4979 199.478 31.3849 199.811 31.3849C200.143 31.3849 200.426 31.4979 200.661 31.7237C200.899 31.9453 201.019 32.2138 201.019 32.5291C201.019 32.8402 200.899 33.1087 200.661 33.3345C200.426 33.5561 200.143 33.6669 199.811 33.6669ZM203.481 45V31.9091H211.599V33.6094H205.456V37.598H211.017V39.2919H205.456V45H203.481ZM213.875 45V35.1818H215.786V45H213.875ZM214.84 33.6669C214.507 33.6669 214.222 33.5561 213.983 33.3345C213.749 33.1087 213.632 32.8402 213.632 32.5291C213.632 32.2138 213.749 31.9453 213.983 31.7237C214.222 31.4979 214.507 31.3849 214.84 31.3849C215.172 31.3849 215.456 31.4979 215.69 31.7237C215.929 31.9453 216.048 32.2138 216.048 32.5291C216.048 32.8402 215.929 33.1087 215.69 33.3345C215.456 33.5561 215.172 33.6669 214.84 33.6669Z" fill="#263238"/>
<path d="M26.7102 37.5884C30.1608 34.2616 34.8416 32.2163 40.0025 32.2163C45.1634 32.2163 49.8442 34.2616 53.2948 37.5884C53.9349 38.2015 54.9451 38.1814 55.5552 37.5432C56.1653 36.9049 56.1453 35.8848 55.5102 35.2717C51.4895 31.3871 46.0236 29 40.0025 29C33.9814 29 28.5155 31.3871 24.4898 35.2667C23.8547 35.8848 23.8347 36.8999 24.4448 37.5432C25.0549 38.1864 26.0701 38.2065 26.7052 37.5884H26.7102ZM40.0025 40.2569C42.843 40.2569 45.4335 41.3172 47.4138 43.0711C48.0789 43.6591 49.0891 43.5937 49.6742 42.9304C50.2593 42.267 50.1943 41.2469 49.5342 40.6589C46.9937 38.4075 43.6531 37.0406 40.0025 37.0406C36.3519 37.0406 33.0113 38.4075 30.4758 40.6589C29.8107 41.2469 29.7507 42.262 30.3358 42.9304C30.9209 43.5988 31.9311 43.6591 32.5962 43.0711C34.5715 41.3172 37.162 40.2569 40.0075 40.2569H40.0025ZM43.2031 48.2975C43.2031 47.4445 42.8659 46.6264 42.2656 46.0233C41.6654 45.4201 40.8513 45.0813 40.0025 45.0813C39.1537 45.0813 38.3396 45.4201 37.7394 46.0233C37.1391 46.6264 36.8019 47.4445 36.8019 48.2975C36.8019 49.1505 37.1391 49.9686 37.7394 50.5717C38.3396 51.1749 39.1537 51.5138 40.0025 51.5138C40.8513 51.5138 41.6654 51.1749 42.2656 50.5717C42.8659 49.9686 43.2031 49.1505 43.2031 48.2975Z" fill="#FFBB00"/>
</svg>
