<svg width="300" height="80" viewBox="0 0 300 80" fill="none" xmlns="http://www.w3.org/2000/svg">
<path d="M78.2514 40.7557H80.1946L81.5625 42.5391L82.2081 43.3317L84.3878 46.1761H82.3679L80.9105 44.2777L80.4119 43.5874L78.2514 40.7557ZM84.8097 38.4545C84.8097 39.8523 84.554 41.054 84.0426 42.0597C83.5313 43.0611 82.8303 43.8324 81.9396 44.3736C81.0533 44.9105 80.0455 45.179 78.9162 45.179C77.7827 45.179 76.7706 44.9105 75.88 44.3736C74.9936 43.8324 74.2947 43.0589 73.7834 42.0533C73.272 41.0476 73.0163 39.848 73.0163 38.4545C73.0163 37.0568 73.272 35.8572 73.7834 34.8558C74.2947 33.8501 74.9936 33.0788 75.88 32.5419C76.7706 32.0007 77.7827 31.7301 78.9162 31.7301C80.0455 31.7301 81.0533 32.0007 81.9396 32.5419C82.8303 33.0788 83.5313 33.8501 84.0426 34.8558C84.554 35.8572 84.8097 37.0568 84.8097 38.4545ZM82.8537 38.4545C82.8537 37.3892 82.6811 36.4922 82.3359 35.7635C81.995 35.0305 81.5263 34.4766 80.9297 34.1016C80.3374 33.7223 79.6662 33.5327 78.9162 33.5327C78.1619 33.5327 77.4886 33.7223 76.8963 34.1016C76.304 34.4766 75.8352 35.0305 75.4901 35.7635C75.1491 36.4922 74.9787 37.3892 74.9787 38.4545C74.9787 39.5199 75.1491 40.419 75.4901 41.152C75.8352 41.8807 76.304 42.4347 76.8963 42.8139C77.4886 43.1889 78.1619 43.3764 78.9162 43.3764C79.6662 43.3764 80.3374 43.1889 80.9297 42.8139C81.5263 42.4347 81.995 41.8807 82.3359 41.152C82.6811 40.419 82.8537 39.5199 82.8537 38.4545ZM93.3382 40.9283V35.1818H95.2559V45H93.3766V43.2997H93.2743C93.0485 43.8239 92.6863 44.2607 92.1877 44.6101C91.6934 44.9553 91.0776 45.1278 90.3404 45.1278C89.7097 45.1278 89.1515 44.9893 88.6657 44.7124C88.1841 44.4311 87.8049 44.0156 87.5279 43.4659C87.2551 42.9162 87.1188 42.2365 87.1188 41.4268V35.1818H89.03V41.1967C89.03 41.8658 89.2154 42.3984 89.5861 42.7947C89.9569 43.1911 90.4384 43.3892 91.0307 43.3892C91.3887 43.3892 91.7445 43.2997 92.0982 43.1207C92.4561 42.9418 92.7523 42.6712 92.9867 42.3089C93.2253 41.9467 93.3425 41.4865 93.3382 40.9283ZM97.8239 45V35.1818H99.7351V45H97.8239ZM98.7891 33.6669C98.4567 33.6669 98.1712 33.5561 97.9325 33.3345C97.6982 33.1087 97.581 32.8402 97.581 32.5291C97.581 32.2138 97.6982 31.9453 97.9325 31.7237C98.1712 31.4979 98.4567 31.3849 98.7891 31.3849C99.1214 31.3849 99.4048 31.4979 99.6392 31.7237C99.8778 31.9453 99.9972 32.2138 99.9972 32.5291C99.9972 32.8402 99.8778 33.1087 99.6392 33.3345C99.4048 33.5561 99.1214 33.6669 98.7891 33.6669ZM106.442 45.1982C105.492 45.1982 104.673 44.983 103.987 44.5526C103.306 44.1179 102.781 43.5192 102.415 42.7564C102.048 41.9936 101.865 41.12 101.865 40.1357C101.865 39.1385 102.053 38.2585 102.428 37.4957C102.803 36.7287 103.331 36.13 104.013 35.6996C104.695 35.2692 105.498 35.054 106.423 35.054C107.169 35.054 107.833 35.1925 108.417 35.4695C109.001 35.7422 109.472 36.1257 109.83 36.62C110.192 37.1143 110.407 37.6918 110.475 38.3523H108.615C108.513 37.892 108.279 37.4957 107.912 37.1634C107.55 36.831 107.064 36.6648 106.455 36.6648C105.922 36.6648 105.455 36.8054 105.055 37.0866C104.659 37.3636 104.35 37.7599 104.128 38.2756C103.906 38.7869 103.796 39.392 103.796 40.0909C103.796 40.8068 103.904 41.4247 104.122 41.9446C104.339 42.4645 104.646 42.8672 105.042 43.1527C105.443 43.4382 105.914 43.581 106.455 43.581C106.817 43.581 107.145 43.5149 107.439 43.3828C107.737 43.2464 107.987 43.0526 108.187 42.8011C108.392 42.5497 108.534 42.2472 108.615 41.8935H110.475C110.407 42.5284 110.2 43.0952 109.855 43.5938C109.51 44.0923 109.048 44.4844 108.468 44.7699C107.893 45.0554 107.218 45.1982 106.442 45.1982ZM114.277 41.6697L114.264 39.3366H114.597L118.509 35.1818H120.797L116.335 39.9119H116.035L114.277 41.6697ZM112.519 45V31.9091H114.43V45H112.519ZM118.719 45L115.204 40.3338L116.521 38.9979L121.065 45H118.719ZM127.456 45V31.9091H132.25C133.179 31.9091 133.948 32.0625 134.557 32.3693C135.167 32.6719 135.623 33.0831 135.925 33.603C136.228 34.1186 136.379 34.7003 136.379 35.348C136.379 35.8935 136.279 36.3537 136.079 36.7287C135.878 37.0994 135.61 37.3977 135.273 37.6236C134.941 37.8452 134.574 38.0071 134.174 38.1094V38.2372C134.608 38.2585 135.032 38.3991 135.446 38.6591C135.863 38.9148 136.209 39.2791 136.481 39.7521C136.754 40.2251 136.89 40.8004 136.89 41.478C136.89 42.147 136.733 42.7479 136.417 43.2805C136.106 43.8089 135.625 44.2287 134.973 44.5398C134.321 44.8466 133.488 45 132.474 45H127.456ZM129.431 43.3061H132.282C133.228 43.3061 133.905 43.1229 134.314 42.7564C134.724 42.3899 134.928 41.9318 134.928 41.3821C134.928 40.9687 134.824 40.5895 134.615 40.2443C134.406 39.8991 134.108 39.6243 133.72 39.4197C133.336 39.2152 132.881 39.1129 132.352 39.1129H129.431V43.3061ZM129.431 37.5724H132.077C132.52 37.5724 132.919 37.4872 133.273 37.3168C133.631 37.1463 133.914 36.9077 134.123 36.6009C134.336 36.2898 134.442 35.9233 134.442 35.5014C134.442 34.9602 134.253 34.5064 133.873 34.1399C133.494 33.7734 132.912 33.5902 132.128 33.5902H129.431V37.5724ZM143.215 45.1982C142.295 45.1982 141.492 44.9872 140.806 44.5653C140.119 44.1435 139.587 43.5533 139.208 42.7947C138.828 42.0362 138.639 41.1499 138.639 40.1357C138.639 39.1172 138.828 38.2266 139.208 37.4638C139.587 36.701 140.119 36.1087 140.806 35.6868C141.492 35.2649 142.295 35.054 143.215 35.054C144.136 35.054 144.939 35.2649 145.625 35.6868C146.311 36.1087 146.844 36.701 147.223 37.4638C147.602 38.2266 147.792 39.1172 147.792 40.1357C147.792 41.1499 147.602 42.0362 147.223 42.7947C146.844 43.5533 146.311 44.1435 145.625 44.5653C144.939 44.9872 144.136 45.1982 143.215 45.1982ZM143.222 43.5938C143.818 43.5938 144.313 43.4361 144.705 43.1207C145.097 42.8054 145.387 42.3857 145.574 41.8615C145.766 41.3374 145.862 40.7599 145.862 40.1293C145.862 39.5028 145.766 38.9276 145.574 38.4034C145.387 37.875 145.097 37.451 144.705 37.1314C144.313 36.8118 143.818 36.652 143.222 36.652C142.621 36.652 142.122 36.8118 141.726 37.1314C141.334 37.451 141.042 37.875 140.85 38.4034C140.663 38.9276 140.569 39.5028 140.569 40.1293C140.569 40.7599 140.663 41.3374 140.85 41.8615C141.042 42.3857 141.334 42.8054 141.726 43.1207C142.122 43.4361 142.621 43.5938 143.222 43.5938ZM154.061 45.1982C153.141 45.1982 152.337 44.9872 151.651 44.5653C150.965 44.1435 150.433 43.5533 150.053 42.7947C149.674 42.0362 149.484 41.1499 149.484 40.1357C149.484 39.1172 149.674 38.2266 150.053 37.4638C150.433 36.701 150.965 36.1087 151.651 35.6868C152.337 35.2649 153.141 35.054 154.061 35.054C154.982 35.054 155.785 35.2649 156.471 35.6868C157.157 36.1087 157.69 36.701 158.069 37.4638C158.448 38.2266 158.638 39.1172 158.638 40.1357C158.638 41.1499 158.448 42.0362 158.069 42.7947C157.69 43.5533 157.157 44.1435 156.471 44.5653C155.785 44.9872 154.982 45.1982 154.061 45.1982ZM154.067 43.5938C154.664 43.5938 155.158 43.4361 155.55 43.1207C155.942 42.8054 156.232 42.3857 156.42 41.8615C156.612 41.3374 156.707 40.7599 156.707 40.1293C156.707 39.5028 156.612 38.9276 156.42 38.4034C156.232 37.875 155.942 37.451 155.55 37.1314C155.158 36.8118 154.664 36.652 154.067 36.652C153.467 36.652 152.968 36.8118 152.572 37.1314C152.18 37.451 151.888 37.875 151.696 38.4034C151.509 38.9276 151.415 39.5028 151.415 40.1293C151.415 40.7599 151.509 41.3374 151.696 41.8615C151.888 42.3857 152.18 42.8054 152.572 43.1207C152.968 43.4361 153.467 43.5938 154.067 43.5938ZM162.529 41.6697L162.516 39.3366H162.849L166.76 35.1818H169.049L164.587 39.9119H164.287L162.529 41.6697ZM160.771 45V31.9091H162.682V45H160.771ZM166.971 45L163.456 40.3338L164.773 38.9979L169.317 45H166.971ZM170.791 45V35.1818H172.702V45H170.791ZM171.756 33.6669C171.423 33.6669 171.138 33.5561 170.899 33.3345C170.665 33.1087 170.548 32.8402 170.548 32.5291C170.548 32.2138 170.665 31.9453 170.899 31.7237C171.138 31.4979 171.423 31.3849 171.756 31.3849C172.088 31.3849 172.372 31.4979 172.606 31.7237C172.845 31.9453 172.964 32.2138 172.964 32.5291C172.964 32.8402 172.845 33.1087 172.606 33.3345C172.372 33.5561 172.088 33.6669 171.756 33.6669ZM177.184 39.1705V45H175.273V35.1818H177.108V36.7798H177.229C177.455 36.2599 177.809 35.8423 178.29 35.527C178.776 35.2116 179.387 35.054 180.125 35.054C180.794 35.054 181.38 35.1946 181.882 35.4759C182.385 35.7528 182.775 36.1662 183.052 36.7159C183.329 37.2656 183.468 37.9453 183.468 38.755V45H181.556V38.9851C181.556 38.2734 181.371 37.7173 181 37.3168C180.63 36.9119 180.12 36.7095 179.473 36.7095C179.029 36.7095 178.635 36.8054 178.29 36.9972C177.949 37.1889 177.679 37.4702 177.478 37.8409C177.282 38.2074 177.184 38.6506 177.184 39.1705ZM190.147 48.8864C189.368 48.8864 188.696 48.7841 188.134 48.5795C187.576 48.375 187.12 48.1044 186.766 47.7678C186.412 47.4311 186.148 47.0625 185.973 46.6619L187.616 45.9844C187.731 46.1719 187.885 46.37 188.076 46.5788C188.272 46.7919 188.537 46.973 188.869 47.1222C189.206 47.2713 189.638 47.3459 190.167 47.3459C190.891 47.3459 191.49 47.169 191.963 46.8153C192.436 46.4659 192.672 45.9077 192.672 45.1406V43.2102H192.551C192.436 43.419 192.27 43.6513 192.052 43.907C191.839 44.1626 191.545 44.3842 191.17 44.5717C190.795 44.7592 190.307 44.853 189.706 44.853C188.931 44.853 188.232 44.6719 187.61 44.3097C186.992 43.9432 186.502 43.4041 186.14 42.6925C185.782 41.9766 185.603 41.0966 185.603 40.0526C185.603 39.0085 185.779 38.1136 186.133 37.3679C186.491 36.6222 186.981 36.0511 187.603 35.6548C188.225 35.2543 188.931 35.054 189.719 35.054C190.328 35.054 190.821 35.1562 191.196 35.3608C191.571 35.5611 191.863 35.7955 192.071 36.0639C192.284 36.3324 192.449 36.5689 192.564 36.7734H192.704V35.1818H194.577V45.2173C194.577 46.0611 194.381 46.7536 193.989 47.2947C193.597 47.8359 193.066 48.2365 192.397 48.4964C191.733 48.7564 190.983 48.8864 190.147 48.8864ZM190.128 43.2678C190.678 43.2678 191.142 43.1399 191.522 42.8842C191.905 42.6243 192.195 42.2536 192.391 41.772C192.591 41.2862 192.691 40.7045 192.691 40.027C192.691 39.3665 192.593 38.7848 192.397 38.282C192.201 37.7791 191.914 37.3871 191.534 37.1058C191.155 36.8203 190.686 36.6776 190.128 36.6776C189.553 36.6776 189.074 36.8267 188.69 37.125C188.306 37.419 188.017 37.8196 187.821 38.3267C187.629 38.8338 187.533 39.4006 187.533 40.027C187.533 40.6705 187.631 41.2351 187.827 41.7209C188.023 42.2067 188.313 42.5859 188.696 42.8587C189.084 43.1314 189.561 43.2678 190.128 43.2678Z" fill="#263238"/>
<path d="M40.9257 31.3286H39.0801C38.9113 31.3286 38.7731 31.4667 38.7731 31.6356V42.1987C38.7731 42.2985 38.8192 42.3906 38.8998 42.4481L45.2423 47.0793C45.3804 47.1791 45.5722 47.1522 45.672 47.0141L46.7694 45.5177C46.873 45.3757 46.8423 45.1839 46.7041 45.0879L41.2326 41.132V31.6356C41.2326 31.4667 41.0945 31.3286 40.9257 31.3286ZM49.3593 34.214L55.3757 35.6835C55.5675 35.7296 55.7555 35.5838 55.7555 35.3881L55.7862 29.1914C55.7862 28.9343 55.4908 28.7885 55.2913 28.9497L49.2442 33.673C49.1985 33.7083 49.1637 33.7559 49.1438 33.8101C49.1239 33.8644 49.1198 33.9231 49.1318 33.9797C49.1438 34.0362 49.1716 34.0881 49.2118 34.1296C49.2521 34.1711 49.3032 34.2003 49.3593 34.214ZM55.7939 45.7671L53.6184 45.0189C53.5425 44.9929 53.4595 44.9976 53.3871 45.032C53.3146 45.0664 53.2586 45.1278 53.2308 45.203C53.1579 45.3987 53.0812 45.5906 53.0006 45.7824C52.3176 47.3978 51.3392 48.852 50.0883 50.099C48.8514 51.3398 47.3854 52.3288 45.7718 53.0113C44.1001 53.718 42.3032 54.0808 40.4883 54.0779C38.6542 54.0779 36.8777 53.7211 35.2048 53.0113C33.5911 52.3288 32.1252 51.3398 30.8882 50.099C29.6412 48.852 28.6628 47.3978 27.9759 45.7824C27.2731 44.1098 26.913 42.3132 26.9169 40.4989C26.9169 38.6649 27.2738 36.8845 27.9836 35.2116C28.6666 33.5962 29.645 32.142 30.8959 30.895C32.1328 29.6542 33.5988 28.6652 35.2125 27.9828C36.8777 27.2729 38.658 26.9161 40.4921 26.9161C42.3262 26.9161 44.1027 27.2729 45.7756 27.9828C47.3893 28.6652 48.8552 29.6542 50.0922 30.895C50.4836 31.2902 50.8519 31.7008 51.1896 32.1344L53.4841 30.3387C50.4644 26.4787 45.7641 23.9962 40.4844 24C31.2911 24.0038 23.9088 31.4706 24.0009 40.6678C24.0929 49.7038 31.4407 56.9979 40.4921 56.9979C47.6097 56.9979 53.6721 52.4856 55.9819 46.1661C56.0395 46.005 55.9551 45.8246 55.7939 45.7671Z" fill="#FFBB00"/>
</svg>
