<svg width="300" height="80" viewBox="0 0 300 80" fill="none" xmlns="http://www.w3.org/2000/svg">
<path d="M80.5781 35.348C80.5099 34.7429 80.2287 34.2741 79.7344 33.9418C79.2401 33.6051 78.6179 33.4368 77.8679 33.4368C77.331 33.4368 76.8665 33.522 76.4744 33.6925C76.0824 33.8587 75.7777 34.0888 75.5604 34.3828C75.3473 34.6726 75.2408 35.0028 75.2408 35.3736C75.2408 35.6847 75.3132 35.9531 75.4581 36.179C75.6072 36.4048 75.8011 36.5945 76.0398 36.7479C76.2827 36.897 76.5426 37.0227 76.8196 37.125C77.0966 37.223 77.3629 37.304 77.6186 37.3679L78.897 37.7003C79.3146 37.8026 79.7429 37.9411 80.1818 38.1158C80.6207 38.2905 81.0277 38.5206 81.4027 38.8061C81.7777 39.0916 82.0803 39.4453 82.3104 39.8672C82.5447 40.2891 82.6619 40.794 82.6619 41.3821C82.6619 42.1236 82.4702 42.782 82.0866 43.3572C81.7074 43.9325 81.1555 44.3864 80.4311 44.7188C79.7109 45.0511 78.8395 45.2173 77.8168 45.2173C76.8366 45.2173 75.9886 45.0618 75.2727 44.7507C74.5568 44.4396 73.9964 43.9986 73.5916 43.4276C73.1868 42.8523 72.9631 42.1705 72.9205 41.3821H74.902C74.9403 41.8551 75.0938 42.2493 75.3622 42.5646C75.6349 42.8757 75.9822 43.108 76.4041 43.2614C76.8303 43.4105 77.2969 43.4851 77.804 43.4851C78.3622 43.4851 78.8587 43.3977 79.2933 43.223C79.7322 43.044 80.0774 42.7969 80.3288 42.4815C80.5803 42.1619 80.706 41.7891 80.706 41.3629C80.706 40.9751 80.5952 40.6577 80.3736 40.4105C80.1563 40.1634 79.8601 39.9588 79.4851 39.7969C79.1143 39.6349 78.6946 39.4922 78.2259 39.3686L76.679 38.9467C75.6307 38.6612 74.7997 38.2415 74.1861 37.6875C73.5767 37.1335 73.272 36.4006 73.272 35.4886C73.272 34.7344 73.4766 34.076 73.8857 33.5135C74.2947 32.951 74.8487 32.5142 75.5476 32.2031C76.2464 31.8878 77.0348 31.7301 77.9126 31.7301C78.799 31.7301 79.581 31.8857 80.2585 32.1967C80.9403 32.5078 81.4773 32.9361 81.8693 33.4815C82.2614 34.0227 82.4659 34.6449 82.483 35.348H80.5781ZM84.8688 48.6818V35.1818H86.7353V36.7734H86.8951C87.0059 36.5689 87.1657 36.3324 87.3745 36.0639C87.5833 35.7955 87.873 35.5611 88.2438 35.3608C88.6145 35.1562 89.1046 35.054 89.714 35.054C90.5066 35.054 91.214 35.2543 91.8361 35.6548C92.4583 36.0554 92.9462 36.6328 93.2999 37.3871C93.6578 38.1413 93.8368 39.049 93.8368 40.1101C93.8368 41.1712 93.66 42.081 93.3063 42.8395C92.9526 43.5937 92.4668 44.1754 91.8489 44.5845C91.231 44.9893 90.5257 45.1918 89.7331 45.1918C89.1365 45.1918 88.6486 45.0916 88.2694 44.8913C87.8944 44.6911 87.6003 44.4567 87.3873 44.1882C87.1742 43.9197 87.0101 43.6811 86.8951 43.4723H86.78V48.6818H84.8688ZM86.7417 40.0909C86.7417 40.7812 86.8418 41.3864 87.0421 41.9062C87.2424 42.4261 87.5321 42.8331 87.9114 43.1271C88.2907 43.4169 88.7551 43.5618 89.3049 43.5618C89.8759 43.5618 90.3532 43.4105 90.7367 43.108C91.1202 42.8011 91.41 42.3857 91.606 41.8615C91.8063 41.3374 91.9064 40.7472 91.9064 40.0909C91.9064 39.4432 91.8084 38.8615 91.6124 38.3459C91.4206 37.8303 91.1309 37.4233 90.7431 37.125C90.3596 36.8267 89.8801 36.6776 89.3049 36.6776C88.7509 36.6776 88.2821 36.8203 87.8986 37.1058C87.5194 37.3913 87.2317 37.7898 87.0357 38.3011C86.8397 38.8125 86.7417 39.4091 86.7417 40.0909ZM100.114 45.1982C99.1934 45.1982 98.3901 44.9872 97.704 44.5653C97.0179 44.1435 96.4853 43.5533 96.106 42.7947C95.7267 42.0362 95.5371 41.1499 95.5371 40.1357C95.5371 39.1172 95.7267 38.2266 96.106 37.4638C96.4853 36.701 97.0179 36.1087 97.704 35.6868C98.3901 35.2649 99.1934 35.054 100.114 35.054C101.034 35.054 101.838 35.2649 102.524 35.6868C103.21 36.1087 103.742 36.701 104.122 37.4638C104.501 38.2266 104.691 39.1172 104.691 40.1357C104.691 41.1499 104.501 42.0362 104.122 42.7947C103.742 43.5533 103.21 44.1435 102.524 44.5653C101.838 44.9872 101.034 45.1982 100.114 45.1982ZM100.12 43.5938C100.717 43.5938 101.211 43.4361 101.603 43.1207C101.995 42.8054 102.285 42.3857 102.472 41.8615C102.664 41.3374 102.76 40.7599 102.76 40.1293C102.76 39.5028 102.664 38.9276 102.472 38.4034C102.285 37.875 101.995 37.451 101.603 37.1314C101.211 36.8118 100.717 36.652 100.12 36.652C99.5194 36.652 99.0208 36.8118 98.6245 37.1314C98.2324 37.451 97.9405 37.875 97.7488 38.4034C97.5613 38.9276 97.4675 39.5028 97.4675 40.1293C97.4675 40.7599 97.5613 41.3374 97.7488 41.8615C97.9405 42.3857 98.2324 42.8054 98.6245 43.1207C99.0208 43.4361 99.5194 43.5938 100.12 43.5938ZM106.824 45V35.1818H108.671V36.7415H108.773C108.952 36.2131 109.268 35.7976 109.719 35.495C110.175 35.1882 110.691 35.0348 111.266 35.0348C111.386 35.0348 111.526 35.0391 111.688 35.0476C111.854 35.0561 111.984 35.0668 112.078 35.0795V36.9077C112.001 36.8864 111.865 36.8629 111.669 36.8374C111.473 36.8075 111.277 36.7926 111.081 36.7926C110.629 36.7926 110.227 36.8885 109.873 37.0803C109.523 37.2678 109.246 37.5298 109.042 37.8665C108.837 38.1989 108.735 38.5781 108.735 39.0043V45H106.824ZM118.895 35.1818V36.7159H113.532V35.1818H118.895ZM114.971 32.8295H116.882V42.1172C116.882 42.4879 116.937 42.767 117.048 42.9545C117.159 43.1378 117.301 43.2635 117.476 43.3317C117.655 43.3956 117.849 43.4276 118.058 43.4276C118.211 43.4276 118.346 43.4169 118.461 43.3956C118.576 43.3743 118.665 43.3572 118.729 43.3445L119.074 44.9233C118.963 44.9659 118.806 45.0085 118.601 45.0511C118.397 45.098 118.141 45.1236 117.834 45.1278C117.331 45.1364 116.863 45.0469 116.428 44.8594C115.993 44.6719 115.642 44.3821 115.373 43.9901C115.105 43.598 114.971 43.1058 114.971 42.5135V32.8295ZM128.208 37.5788L126.476 37.8857C126.404 37.6641 126.289 37.4531 126.131 37.2528C125.978 37.0526 125.769 36.8885 125.505 36.7607C125.24 36.6328 124.91 36.5689 124.514 36.5689C123.973 36.5689 123.521 36.6903 123.159 36.9332C122.797 37.1719 122.615 37.4808 122.615 37.8601C122.615 38.1882 122.737 38.4524 122.98 38.6527C123.223 38.853 123.615 39.017 124.156 39.1449L125.716 39.5028C126.619 39.7116 127.292 40.0334 127.735 40.468C128.179 40.9027 128.4 41.4673 128.4 42.1619C128.4 42.75 128.23 43.2741 127.889 43.7344C127.552 44.1903 127.081 44.5483 126.476 44.8082C125.875 45.0682 125.179 45.1982 124.386 45.1982C123.287 45.1982 122.39 44.9638 121.695 44.495C121 44.022 120.574 43.3509 120.417 42.4815L122.264 42.2003C122.379 42.6818 122.615 43.0462 122.973 43.2933C123.331 43.5362 123.798 43.6577 124.373 43.6577C125 43.6577 125.5 43.5277 125.875 43.2678C126.25 43.0036 126.438 42.6818 126.438 42.3026C126.438 41.9957 126.323 41.7379 126.093 41.5291C125.867 41.3203 125.52 41.1626 125.051 41.0561L123.389 40.6918C122.473 40.483 121.795 40.1506 121.356 39.6946C120.922 39.2386 120.704 38.6612 120.704 37.9624C120.704 37.3828 120.866 36.8757 121.19 36.4411C121.514 36.0064 121.961 35.6676 122.532 35.4247C123.103 35.1776 123.757 35.054 124.495 35.054C125.556 35.054 126.391 35.2841 127 35.7443C127.61 36.2003 128.012 36.8118 128.208 37.5788ZM136.525 45H134.428L139.139 31.9091H141.421L146.132 45H144.035L140.334 34.2869H140.232L136.525 45ZM136.876 39.8736H143.677V41.5355H136.876V39.8736ZM147.869 45V35.1818H149.716V36.7415H149.818C149.997 36.2131 150.313 35.7976 150.764 35.495C151.22 35.1882 151.736 35.0348 152.311 35.0348C152.431 35.0348 152.571 35.0391 152.733 35.0476C152.899 35.0561 153.029 35.0668 153.123 35.0795V36.9077C153.046 36.8864 152.91 36.8629 152.714 36.8374C152.518 36.8075 152.322 36.7926 152.126 36.7926C151.674 36.7926 151.271 36.8885 150.918 37.0803C150.568 37.2678 150.291 37.5298 150.087 37.8665C149.882 38.1989 149.78 38.5781 149.78 39.0043V45H147.869ZM158.657 45.1982C157.69 45.1982 156.857 44.9915 156.158 44.5781C155.463 44.1605 154.926 43.5746 154.547 42.8203C154.172 42.0618 153.984 41.1733 153.984 40.1548C153.984 39.1491 154.172 38.2628 154.547 37.4957C154.926 36.7287 155.455 36.13 156.132 35.6996C156.814 35.2692 157.611 35.054 158.523 35.054C159.077 35.054 159.614 35.1456 160.134 35.3288C160.653 35.5121 161.12 35.7997 161.533 36.1918C161.947 36.5838 162.273 37.093 162.511 37.7195C162.75 38.3416 162.869 39.098 162.869 39.9886V40.6662H155.065V39.2344H160.996C160.996 38.7315 160.894 38.2862 160.69 37.8984C160.485 37.5064 160.197 37.1974 159.827 36.9716C159.46 36.7457 159.03 36.6328 158.536 36.6328C157.999 36.6328 157.53 36.7649 157.129 37.0291C156.733 37.2891 156.426 37.63 156.209 38.0518C155.996 38.4695 155.889 38.9233 155.889 39.4134V40.532C155.889 41.1882 156.004 41.7464 156.234 42.2067C156.469 42.6669 156.795 43.0185 157.212 43.2614C157.63 43.5 158.118 43.6193 158.676 43.6193C159.038 43.6193 159.369 43.5682 159.667 43.4659C159.965 43.3594 160.223 43.2017 160.44 42.9929C160.658 42.7841 160.824 42.5263 160.939 42.2195L162.748 42.5455C162.603 43.0781 162.343 43.5447 161.968 43.9453C161.597 44.3416 161.131 44.6506 160.568 44.8722C160.01 45.0895 159.373 45.1982 158.657 45.1982ZM167.847 45.2173C167.225 45.2173 166.662 45.1023 166.16 44.8722C165.657 44.6378 165.258 44.299 164.964 43.8558C164.675 43.4126 164.53 42.8693 164.53 42.2259C164.53 41.6719 164.636 41.2159 164.849 40.858C165.062 40.5 165.35 40.2166 165.712 40.0078C166.074 39.799 166.479 39.6413 166.927 39.5348C167.374 39.4283 167.83 39.3473 168.295 39.2919C168.883 39.2237 169.36 39.1683 169.726 39.1257C170.093 39.0788 170.359 39.0043 170.525 38.902C170.692 38.7997 170.775 38.6335 170.775 38.4034V38.3587C170.775 37.8004 170.617 37.3679 170.302 37.0611C169.991 36.7543 169.526 36.6009 168.908 36.6009C168.265 36.6009 167.758 36.7436 167.387 37.0291C167.02 37.3104 166.767 37.6236 166.626 37.9688L164.83 37.5597C165.043 36.9631 165.354 36.4815 165.763 36.1151C166.177 35.7443 166.652 35.4759 167.189 35.3097C167.726 35.1392 168.29 35.054 168.883 35.054C169.275 35.054 169.69 35.1009 170.129 35.1946C170.572 35.2841 170.986 35.4503 171.369 35.6932C171.757 35.9361 172.074 36.2834 172.322 36.7351C172.569 37.1825 172.692 37.7642 172.692 38.4801V45H170.826V43.6577H170.749C170.626 43.9048 170.44 44.1477 170.193 44.3864C169.946 44.625 169.628 44.8232 169.241 44.9808C168.853 45.1385 168.388 45.2173 167.847 45.2173ZM168.263 43.6832C168.791 43.6832 169.243 43.5788 169.618 43.37C169.997 43.1612 170.285 42.8885 170.481 42.5518C170.681 42.2109 170.781 41.8466 170.781 41.4588V40.1932C170.713 40.2614 170.581 40.3253 170.385 40.3849C170.193 40.4403 169.974 40.4893 169.726 40.532C169.479 40.5703 169.238 40.6065 169.004 40.6406C168.77 40.6705 168.574 40.696 168.416 40.7173C168.045 40.7642 167.706 40.843 167.4 40.9538C167.097 41.0646 166.854 41.2244 166.671 41.4332C166.492 41.6378 166.403 41.9105 166.403 42.2514C166.403 42.7244 166.577 43.0824 166.927 43.3253C167.276 43.5639 167.721 43.6832 168.263 43.6832Z" fill="#263238"/>
<path d="M52.0552 25.3118C48.342 21.6757 41.5503 22.406 36.9009 26.9589C34.362 29.4451 32.9021 32.9724 32.8704 35.4431C32.8386 37.8982 33.283 41.4877 30.7282 43.9894L24 50.5778L26.2533 52.7843L32.9815 46.1959C35.5363 43.6942 39.2018 44.1292 41.709 44.0982C44.2162 44.0671 47.8342 42.6375 50.3731 40.1513C55.0067 35.5985 55.7683 28.9479 52.0552 25.3118ZM37.4563 39.5919C35.0285 37.2145 35.7901 32.4286 39.1384 29.1499C42.4866 25.8712 47.3581 25.1253 49.8019 27.5028C52.2297 29.8802 51.468 34.6661 48.1198 37.9448C44.7716 41.2235 39.9 41.9694 37.4563 39.5919ZM49.6432 47.8585C50.4842 47.8585 51.2935 48.1849 51.8806 48.7753C53.1183 49.9874 53.1183 51.9608 51.8806 53.1728C51.2935 53.7477 50.4842 54.0741 49.6432 54.0741C48.8022 54.0741 47.9929 53.7477 47.4057 53.1573C46.168 51.9452 46.168 49.9718 47.4057 48.7598C47.9929 48.1849 48.8022 47.8585 49.6432 47.8585ZM49.6432 44.7508C48.3864 44.7483 47.1572 45.1115 46.1115 45.7941C45.0657 46.4768 44.2506 47.4482 43.7695 48.5851C43.2885 49.7221 43.1631 50.9734 43.4093 52.1802C43.6555 53.387 44.2622 54.4951 45.1524 55.3638C46.3902 56.5758 48.0246 57.1818 49.6432 57.1818C50.9 57.1843 52.1292 56.8211 53.1749 56.1385C54.2206 55.4558 55.0357 54.4844 55.5168 53.3475C55.9979 52.2105 56.1233 50.9593 55.8771 49.7524C55.6309 48.5456 55.0242 47.4375 54.1339 46.5688C53.5441 45.9917 52.8439 45.534 52.0733 45.2221C51.3028 44.9101 50.477 44.75 49.6432 44.7508Z" fill="#FFBB00"/>
</svg>
